<?xml version="1.0" encoding="UTF-8" standalone="no"?>
<!-- Created with Inkscape (http://www.inkscape.org/) -->

<svg
   xmlns:dc="http://purl.org/dc/elements/1.1/"
   xmlns:cc="http://creativecommons.org/ns#"
   xmlns:rdf="http://www.w3.org/1999/02/22-rdf-syntax-ns#"
   xmlns:svg="http://www.w3.org/2000/svg"
   xmlns="http://www.w3.org/2000/svg"
   xmlns:sodipodi="http://sodipodi.sourceforge.net/DTD/sodipodi-0.dtd"
   xmlns:inkscape="http://www.inkscape.org/namespaces/inkscape"
   version="1.1"
   id="svg2"
   width="512"
   height="512"
   viewBox="0 0 512 512"
   sodipodi:docname="U+5805.svg"
   inkscape:version="0.92.4 (5da689c313, 2019-01-14)">
  <metadata
     id="metadata8">
    <rdf:RDF>
      <cc:Work
         rdf:about="">
        <dc:format>image/svg+xml</dc:format>
        <dc:type
           rdf:resource="http://purl.org/dc/dcmitype/StillImage" />
        <dc:title></dc:title>
      </cc:Work>
    </rdf:RDF>
  </metadata>
  <defs
     id="defs6" />
  <sodipodi:namedview
     pagecolor="#ffffff"
     bordercolor="#666666"
     borderopacity="1"
     objecttolerance="10"
     gridtolerance="10"
     guidetolerance="10"
     inkscape:pageopacity="0"
     inkscape:pageshadow="2"
     inkscape:window-width="1920"
     inkscape:window-height="1017"
     id="namedview4"
     showgrid="false"
     inkscape:zoom="1.84375"
     inkscape:cx="280.47027"
     inkscape:cy="270.87941"
     inkscape:window-x="-8"
     inkscape:window-y="-8"
     inkscape:window-maximized="1"
     inkscape:current-layer="svg2" />
  <path
     style="fill:#000000;stroke:#000000;stroke-width:1px;stroke-linecap:butt;stroke-linejoin:miter;stroke-opacity:1"
     d="m 103.05085,67.254237 c 0,0 -5.423731,5.423729 -0.54238,16.271186 4.88136,10.847458 14.64407,15.728814 14.64407,15.728814 0,0 9.76271,18.983053 11.93221,18.983053 2.16949,0 16.27118,-9.22034 16.27118,-9.22034 l 5.42373,6.50847 -9.76271,33.62712 -3.79661,4.88136 -20.61017,1.08474 c 0,0 0,13.01695 9.22034,18.98305 9.22034,5.96611 9.22034,5.96611 9.22034,5.96611 l 43.9322,-18.98305 10.84746,-3.25424 c 0,0 13.55932,-8.67797 10.84746,5.42373 -2.71187,14.10169 -9.22034,30.91525 -9.22034,30.91525 l -86.23729,29.28814 -7.593221,-2.71187 -3.79661,-9.22034 7.050851,-69.9661 c 0,0 -7.593224,-49.355931 -33.08475,-72.677965 -25.491525,-23.322033 2.711865,42.847455 2.711865,42.847455 0,0 9.762712,-4.33898 10.847457,49.35594 1.084746,53.69491 2.711865,65.62711 2.711865,65.62711 l -5.423729,14.64407 3.254237,38.50848 c 0,0 -7.59322,61.28813 5.423729,64.54237 13.016946,3.25424 10.847458,-1.62712 10.847458,-1.62712 l -3.254238,-40.13559 12.474576,-1.08475 9.22034,10.84746 11.38983,-11.9322 41.76271,-15.72882 41.76271,-0.54237 v -11.9322 l -11.38983,-5.42373 h -4.88135 c 0,0 5.9661,-16.81356 -3.79661,-27.11865 -9.76271,-10.30508 -26.0339,-2.71186 -26.0339,-2.71186 l 2.16949,28.20339 -52.61017,18.44068 -14.10169,6.50847 c 0,0 -7.050851,1.62712 -6.508479,-3.79661 0.542373,-5.42373 -0.542372,-47.72881 -0.542372,-47.72881 h 6.508471 l 7.59322,8.13559 10.84746,3.79661 24.40678,-18.98305 69.9661,-20.0678 4.88136,-9.76271 -7.59322,-2.71186 16.81356,-30.91526 -1.08475,-10.84745 16.81356,-15.18645 c 0,0 -28.20339,-30.91525 -37.9661,-21.15254 -9.76271,9.76271 -8.67797,14.64407 -8.67797,14.64407 l -38.50847,13.55932 16.81356,-42.30508 -9.22034,-8.677969 c 0,0 -2.16949,-9.220339 0.54237,-8.677966 2.71187,0.542373 22.23729,-13.016949 22.23729,-13.016949 0,0 33.08475,-29.288136 -15.18644,-24.40678 -48.27119,4.881356 -69.9661,15.186441 -69.9661,15.186441 z"
     id="path12"
     inkscape:connector-curvature="0" />
  <path
     style="fill:#000000;stroke:#000000;stroke-width:1px;stroke-linecap:butt;stroke-linejoin:miter;stroke-opacity:1"
     d="m 270.64407,102.50847 c 0,0 10.30508,29.83051 18.44068,30.91526 8.13559,1.08474 49.35593,-16.81356 49.35593,-16.81356 l 2.16949,17.35593 c 0,0 -14.1017,49.89831 -25.49153,52.61017 -11.38983,2.71187 -54.23728,-22.77966 -54.23728,-22.77966 0,0 -36.88135,-3.25424 -33.62712,4.33898 3.25423,7.59322 75.38983,21.69492 72.67796,32.54238 -2.71186,10.84745 -45.01695,40.13559 -45.01695,40.13559 0,0 -32,12.47458 -42.30508,2.16949 -10.30509,-10.30508 12.47458,30.37288 12.47458,30.37288 0,0 21.15254,39.59322 8.67796,47.72882 -12.47457,8.13559 -55.32203,27.11864 -65.08474,23.8644 -9.76272,-3.25423 -13.55933,-5.42373 -13.55933,-5.42373 0,0 -14.64406,7.59322 -2.71186,18.44068 11.9322,10.84746 17.35593,11.38983 17.35593,11.38983 l 5.42373,11.38983 13.55932,9.76271 c 0,0 41.76271,-35.79661 45.55932,-31.45762 3.79662,4.33898 -2.71186,45.55932 -3.25423,50.98305 -0.54238,5.42373 -72.1356,23.86441 -81.35593,22.23729 -9.22034,-1.62712 -5.96611,9.76271 -5.96611,9.76271 0,0 39.05085,22.23729 37.96611,27.66102 -1.08475,5.42372 4.33898,4.33898 20.06779,-6.50848 15.72882,-10.84746 52.61017,-29.83051 96,-20.61017 43.38983,9.22034 23.32204,-20.0678 13.01695,-25.49152 -10.30508,-5.42373 -49.35593,-12.47458 -55.86441,-11.93221 -6.50847,0.54238 0,-53.69491 3.79661,-61.83051 3.79661,-8.13559 36.88136,-25.49152 45.55933,-24.94915 8.67796,0.54237 5.42373,-22.77966 -14.64407,-17.8983 -20.0678,4.88135 -22.77966,10.30508 -21.15254,3.25423 1.62712,-7.05084 7.59322,-13.55932 7.59322,-13.55932 0,0 -16.81356,-20.61017 -21.15255,-29.83051 -4.33898,-9.22034 5.96611,-11.38983 5.96611,-11.38983 0,0 46.64406,-26.57627 52.06779,-35.25424 5.42373,-8.67796 22.23729,8.1356 22.23729,8.1356 0,0 68.88136,58.57627 80.27119,82.44068 11.38983,23.8644 24.94915,9.22034 21.69491,2.71186 -3.25423,-6.50847 -29.83051,-56.40678 -71.59322,-82.44068 -41.76271,-26.0339 -46.10169,-22.23729 -42.84746,-25.49152 3.25424,-3.25424 32.54238,-46.64407 29.83051,-54.77966 -2.71186,-8.1356 -8.13559,-27.11865 -8.13559,-27.11865 l 52.61017,-18.440676 c 0,0 13.01695,-20.067797 -15.72881,-18.440678 -28.74577,1.627119 -24.40678,11.932203 -24.40678,11.932203 l -61.28814,18.440681 z"
     id="path14"
     inkscape:connector-curvature="0" />
  <path
     style="fill:#000000;stroke:#000000;stroke-width:1px;stroke-linecap:butt;stroke-linejoin:miter;stroke-opacity:1"
     d="m 275.52542,362.84746 13.55933,17.35593 34.16949,7.05085 c 0,0 14.64407,-8.67797 -5.42373,-20.61017 -20.0678,-11.93221 -25.49153,-11.38983 -40.13559,-3.25424 -14.64407,8.13559 -2.1695,-0.54237 -2.1695,-0.54237 z"
     id="path16"
     inkscape:connector-curvature="0" />
</svg>
