<?xml version="1.0" encoding="UTF-8" standalone="no"?>
<!-- Created with Inkscape (http://www.inkscape.org/) -->

<svg
   xmlns:dc="http://purl.org/dc/elements/1.1/"
   xmlns:cc="http://creativecommons.org/ns#"
   xmlns:rdf="http://www.w3.org/1999/02/22-rdf-syntax-ns#"
   xmlns:svg="http://www.w3.org/2000/svg"
   xmlns="http://www.w3.org/2000/svg"
   xmlns:sodipodi="http://sodipodi.sourceforge.net/DTD/sodipodi-0.dtd"
   xmlns:inkscape="http://www.inkscape.org/namespaces/inkscape"
   version="1.1"
   id="svg3768"
   width="512"
   height="512"
   viewBox="0 0 512 512"
   sodipodi:docname="U+597D.svg"
   inkscape:version="0.92.4 (5da689c313, 2019-01-14)">
  <metadata
     id="metadata3774">
    <rdf:RDF>
      <cc:Work
         rdf:about="">
        <dc:format>image/svg+xml</dc:format>
        <dc:type
           rdf:resource="http://purl.org/dc/dcmitype/StillImage" />
        <dc:title></dc:title>
      </cc:Work>
    </rdf:RDF>
  </metadata>
  <defs
     id="defs3772" />
  <sodipodi:namedview
     pagecolor="#ffffff"
     bordercolor="#666666"
     borderopacity="1"
     objecttolerance="10"
     gridtolerance="10"
     guidetolerance="10"
     inkscape:pageopacity="0"
     inkscape:pageshadow="2"
     inkscape:window-width="1920"
     inkscape:window-height="1017"
     id="namedview3770"
     showgrid="false"
     inkscape:zoom="1.3037281"
     inkscape:cx="328.16025"
     inkscape:cy="205.52238"
     inkscape:window-x="-8"
     inkscape:window-y="-8"
     inkscape:window-maximized="1"
     inkscape:current-layer="svg3768" />
  <path
     style="fill:#000000;stroke:#000000;stroke-width:1px;stroke-linecap:butt;stroke-linejoin:miter;stroke-opacity:1"
     d="m 174.88309,81.695561 13.03953,46.788899 -35.28343,127.32716 0.76703,5.36922 c 0,0 -102.782168,41.41967 -118.12279,34.51639 -15.340622,-6.90328 -19.942808,8.43735 -19.942808,8.43735 0,0 15.340621,20.70984 11.505466,26.84608 -3.835155,6.13625 13.039528,0.76703 13.039528,0.76703 l 111.986534,-53.69217 118.12279,-68.26577 1.53406,-4.60218 -95.87888,46.78889 -1.53406,-2.30109 c 0,0 27.61312,-115.8217 36.81749,-111.98654 9.20437,3.83516 -26.07906,-62.896549 -26.07906,-62.896549 0,0 -7.67031,-2.301093 -9.9714,6.90328 z"
     id="path3778"
     inkscape:connector-curvature="0" />
  <path
     style="fill:#000000;stroke:#000000;stroke-width:1px;stroke-linecap:butt;stroke-linejoin:miter;stroke-opacity:1"
     d="m 151.87215,278.05552 c 0,0 78.23718,91.2767 79.00421,99.71404 0.76703,8.43734 9.9714,-6.90328 9.9714,-6.90328 l 8.43734,21.47687 11.50547,3.06813 1.53406,-9.97141 -26.84609,-118.12279 c 0,0 -10.73843,-26.07905 -6.90328,3.83516 3.83516,29.91421 4.60219,75.93608 4.60219,75.93608 h -4.60219 L 194.8259,309.50379 248.51807,195.21616 c 0,0 -19.17578,-45.25483 -1.53406,-66.7317 17.64171,-21.47687 -16.10765,-10.73844 -16.10765,-10.73844 l -5.36922,29.91421 9.20437,53.69218 -32.98233,75.93608 -14.5736,19.94281 -19.17577,-24.545 -5.36922,-10.73843 z"
     id="path3780"
     inkscape:connector-curvature="0" />
  <path
     style="fill:#000000;stroke:#000000;stroke-width:1px;stroke-linecap:butt;stroke-linejoin:miter;stroke-opacity:1"
     d="m 187.15558,297.2313 c 0,0 -66.7317,88.9756 -120.423876,95.87888 -53.692176,6.90328 39.885616,7.67031 39.885616,7.67031 0,0 82.83937,-69.79983 88.20858,-91.2767 5.36921,-21.47687 -7.67032,-12.27249 -7.67032,-12.27249 z"
     id="path3782"
     inkscape:connector-curvature="0" />
  <path
     style="fill:#000000;stroke:#000000;stroke-width:1px;stroke-linecap:butt;stroke-linejoin:miter;stroke-opacity:1"
     d="m 286.86963,165.30195 c 0,0 3.06812,44.4878 40.65264,39.11858 29.91422,-27.61311 48.32296,-33.74936 48.32296,-33.74936 l 6.90328,0.76703 c 0,0 -19.17578,39.88561 -13.03953,52.92514 -23.01093,-1.53406 -14.57359,5.36922 -14.57359,5.36922 0,0 29.91421,16.87468 17.64172,23.77796 -12.2725,6.90328 -124.25904,29.91422 -128.86122,28.38015 -4.60219,-1.53406 32.2153,26.84609 49.08998,20.70984 83.60639,-32.98233 105.85029,-56.7603 91.2767,29.91422 l -14.57359,53.69217 c 0,0 -41.41968,9.20438 -66.7317,-3.06812 -16.87469,-5.36922 -29.14718,-16.87469 -16.87469,-5.36922 12.2725,11.50547 60.59546,55.22624 59.82843,68.26577 -0.76703,13.03953 26.07906,-23.77797 39.88562,-36.05046 13.80656,-12.2725 27.61311,-134.23044 16.10765,-136.53154 -11.50547,-2.30109 46.78889,-15.34062 63.66358,-6.13625 16.87468,9.20438 31.44827,5.36922 31.44827,5.36922 0,0 14.57359,-13.80656 -12.27249,-24.54499 -26.84609,-10.73844 -46.7889,-6.90328 -39.88562,-11.50547 6.90328,-4.60219 9.9714,-5.36922 9.9714,-5.36922 0,0 -3.83515,-14.57359 -17.64171,-4.60218 -13.80656,9.9714 -4.60219,15.34062 -4.60219,15.34062 l -34.5164,5.36922 -8.43734,-8.43735 c 0,0 10.73844,5.36922 29.14718,-75.16904 24.545,-18.40875 25.31203,-26.07906 25.31203,-26.07906 L 398.08913,112.3768 c -14.57359,0 -3.57824,-3.06585 -22.2439,21.47687 -14.57945,19.16992 -90.22036,30.20352 -88.9756,31.44828 z"
     id="path3784"
     inkscape:connector-curvature="0"
     sodipodi:nodetypes="ccccccscccccssscscsscsccccccsc" />
</svg>
