<?xml version="1.0" encoding="UTF-8" standalone="no"?>
<!-- Created with Inkscape (http://www.inkscape.org/) -->

<svg
   xmlns:dc="http://purl.org/dc/elements/1.1/"
   xmlns:cc="http://creativecommons.org/ns#"
   xmlns:rdf="http://www.w3.org/1999/02/22-rdf-syntax-ns#"
   xmlns:svg="http://www.w3.org/2000/svg"
   xmlns="http://www.w3.org/2000/svg"
   xmlns:sodipodi="http://sodipodi.sourceforge.net/DTD/sodipodi-0.dtd"
   xmlns:inkscape="http://www.inkscape.org/namespaces/inkscape"
   version="1.1"
   id="svg10"
   width="512"
   height="512"
   viewBox="0 0 512 512"
   sodipodi:docname="守 U+5B88.svg"
   inkscape:version="0.92.4 (5da689c313, 2019-01-14)">
  <metadata
     id="metadata16">
    <rdf:RDF>
      <cc:Work
         rdf:about="">
        <dc:format>image/svg+xml</dc:format>
        <dc:type
           rdf:resource="http://purl.org/dc/dcmitype/StillImage" />
        <dc:title></dc:title>
      </cc:Work>
    </rdf:RDF>
  </metadata>
  <defs
     id="defs14" />
  <sodipodi:namedview
     pagecolor="#ffffff"
     bordercolor="#666666"
     borderopacity="1"
     objecttolerance="10"
     gridtolerance="10"
     guidetolerance="10"
     inkscape:pageopacity="0"
     inkscape:pageshadow="2"
     inkscape:window-width="1920"
     inkscape:window-height="1017"
     id="namedview12"
     showgrid="false"
     inkscape:zoom="1.6523438"
     inkscape:cx="256"
     inkscape:cy="256"
     inkscape:window-x="-8"
     inkscape:window-y="-8"
     inkscape:window-maximized="1"
     inkscape:current-layer="svg10" />
  <path
     style="fill:#000000;stroke:#000000;stroke-width:1px;stroke-linecap:butt;stroke-linejoin:miter;stroke-opacity:1"
     d="m 203.34752,84.728132 v 7.867613 l 7.86761,13.919625 6.65721,-1.21041 c 0,0 20.57683,8.47282 15.13002,25.41844 -5.4468,16.94563 33.28606,-6.05201 33.28606,-6.05201 0,0 1.8156,-43.574463 -32.68085,-48.416071 -34.49646,-4.841607 -45.99528,36.917261 -30.26005,8.472813 z"
     id="path22"
     inkscape:connector-curvature="0" />
  <path
     style="fill:#000000;stroke:#000000;stroke-width:1px;stroke-linecap:butt;stroke-linejoin:miter;stroke-opacity:1"
     d="m 147.66903,133.14421 c 0,0 -15.13002,1.8156 6.65721,35.70685 21.78724,33.89126 10.28842,3.63121 10.28842,3.63121 l 76.25532,-29.04965 c 0,0 104.69976,-26.02364 131.9338,-15.13002 27.23405,10.89362 -9.07801,35.10166 -9.07801,35.10166 0,0 3.026,17.55082 13.91962,14.52482 10.89362,-3.02601 43.57447,-44.17967 48.41608,-37.52246 4.8416,6.65721 12.70922,-16.34043 -7.86762,-18.76123 -20.57683,-2.4208 -42.36406,-25.41844 -42.36406,-25.41844 0,0 -214.84634,58.70449 -225.13475,38.12766 -10.28842,-20.57683 -3.02601,-1.2104 -3.02601,-1.2104 z"
     id="path24"
     inkscape:connector-curvature="0" />
  <path
     style="fill:#000000;stroke:#000000;stroke-width:1px;stroke-linecap:butt;stroke-linejoin:miter;stroke-opacity:1"
     d="m 90.174941,131.32861 c -1.815603,21.18203 5.446808,39.33806 5.446808,39.33806 l 16.945631,15.13002 -1.21041,22.39244 -5.4468,5.4468 6.052,29.04965 17.55083,11.49882 9.68322,-78.67613 -43.574471,-42.96926 z"
     id="path26"
     inkscape:connector-curvature="0" />
  <path
     style="fill:#000000;stroke:#000000;stroke-width:1px;stroke-linecap:butt;stroke-linejoin:miter;stroke-opacity:1"
     d="m 152.51064,259.63121 15.73522,33.28605 c 0,0 107.12057,-55.07329 105.30497,-39.33806 -1.81561,15.73522 4.8416,116.80378 4.8416,116.80378 0,0 -2.4208,20.57683 -27.83924,3.6312 -25.41844,-16.94562 -0.6052,46.60048 6.05201,49.02128 6.65721,2.4208 9.07802,3.63121 9.07802,3.63121 l 24.81323,-7.26241 7.86762,-26.02365 c 0,0 -15.13003,-140.40661 -4.84161,-147.66903 10.28841,-7.26241 72.62411,-11.49881 72.62411,-11.49881 l 3.63121,-11.49882 c 0,0 -19.08407,-15.94676 -66.57211,0.6052 -5.8267,2.0309 1.30882,-7.29965 0.6052,-6.65721 l -31.47044,-26.62884 -29.65485,5.44681 27.23404,33.28605 c -35.70686,8.47281 -97.39876,48.12768 -107.12057,25.41844 l -7.86761,4.2364 z"
     id="path28"
     inkscape:connector-curvature="0"
     sodipodi:nodetypes="ccscsscccsccsccccccc" />
  <path
     style="fill:#000000;stroke:#000000;stroke-width:1px;stroke-linecap:butt;stroke-linejoin:miter;stroke-opacity:1"
     d="m 197.90071,288.07565 c -0.6052,6.05201 -38.73287,3.63121 30.86525,54.46809 69.59811,50.83687 24.20804,-23.60284 24.20804,-23.60284 l -49.62648,-31.47045 z"
     id="path30"
     inkscape:connector-curvature="0" />
</svg>
