<?xml version="1.0" encoding="UTF-8" standalone="no"?>
<!-- Created with Inkscape (http://www.inkscape.org/) -->

<svg
   xmlns:dc="http://purl.org/dc/elements/1.1/"
   xmlns:cc="http://creativecommons.org/ns#"
   xmlns:rdf="http://www.w3.org/1999/02/22-rdf-syntax-ns#"
   xmlns:svg="http://www.w3.org/2000/svg"
   xmlns="http://www.w3.org/2000/svg"
   xmlns:sodipodi="http://sodipodi.sourceforge.net/DTD/sodipodi-0.dtd"
   xmlns:inkscape="http://www.inkscape.org/namespaces/inkscape"
   version="1.1"
   id="svg3779"
   width="512"
   height="512"
   viewBox="0 0 512 512"
   sodipodi:docname="U+610F.svg"
   inkscape:version="0.92.4 (5da689c313, 2019-01-14)">
  <metadata
     id="metadata3785">
    <rdf:RDF>
      <cc:Work
         rdf:about="">
        <dc:format>image/svg+xml</dc:format>
        <dc:type
           rdf:resource="http://purl.org/dc/dcmitype/StillImage" />
        <dc:title></dc:title>
      </cc:Work>
    </rdf:RDF>
  </metadata>
  <defs
     id="defs3783" />
  <sodipodi:namedview
     pagecolor="#ffffff"
     bordercolor="#666666"
     borderopacity="1"
     objecttolerance="10"
     gridtolerance="10"
     guidetolerance="10"
     inkscape:pageopacity="0"
     inkscape:pageshadow="2"
     inkscape:window-width="1920"
     inkscape:window-height="1017"
     id="namedview3781"
     showgrid="false"
     inkscape:zoom="0.921875"
     inkscape:cx="297.9271"
     inkscape:cy="150.59167"
     inkscape:window-x="-8"
     inkscape:window-y="-8"
     inkscape:window-maximized="1"
     inkscape:current-layer="svg3779" />
  <path
     style="fill:#000000;stroke:#000000;stroke-width:1px;stroke-linecap:butt;stroke-linejoin:miter;stroke-opacity:1"
     d="m 206.1017,27.118644 c 0,0 26.03389,1.084746 30.37288,21.694915 4.33898,20.61017 10.84745,14.101695 1.08474,24.949153 -9.76271,10.847457 -53.15254,18.440678 -59.66101,15.18644 -6.50848,-3.254237 -13.01695,-3.254237 -18.44068,-11.932203 -5.42373,-8.677966 -19.52543,-1.084746 -3.25424,18.440678 16.27119,19.525423 22.74762,25.340753 33.62712,26.033903 11.04618,0.70377 5.62186,-23.165929 131.25424,-45.559327 126.01835,-22.462198 17.35593,-30.372881 17.35593,-30.372881 l -66.16949,17.355932 c 0,0 27.11864,-19.525424 -10.84746,-35.79661 -37.9661,-16.271187 -20.61017,-22.7796612 -55.32203,0 z"
     id="path3789"
     inkscape:connector-curvature="0"
     sodipodi:nodetypes="csssssssccsc" />
  <path
     style="fill:#000000;stroke:#000000;stroke-width:1px;stroke-linecap:butt;stroke-linejoin:miter;stroke-opacity:1"
     d="m 200.67797,122.57627 c 0,0 4.33898,29.28814 15.18644,36.88136 10.84745,7.59322 -135.593224,45.55932 -135.593224,45.55932 0,0 -16.271186,-3.25424 -19.525423,-8.67797 -3.254238,-5.42373 -6.508475,16.27119 -6.508475,16.27119 0,0 3.254237,23.86441 17.355932,23.86441 14.101695,0 28.20339,-5.42373 28.20339,-5.42373 0,0 106.30509,-58.57627 118.23729,-56.40678 11.9322,2.16949 18.44068,14.10169 18.44068,14.10169 l 6.50847,-6.50847 -2.16949,-10.84746 26.0339,-9.76271 -5.42373,10.84746 6.50847,3.25423 34.71187,-18.44067 11.9322,-6.50848 c 0,0 96.54237,-16.27119 92.20339,-7.59322 -4.33898,8.67797 -13.01695,20.61017 -13.01695,20.61017 0,0 -8.67796,8.67797 14.1017,2.16949 22.77966,-6.50847 52.06779,1.08475 59.66101,3.25424 7.59322,2.16949 22.77967,-15.18644 -3.25423,-27.11865 -26.0339,-11.9322 -20.61017,-19.52542 -40.1356,-18.44067 -19.52542,1.08474 -92.20339,16.27118 -103.05084,13.01695 -10.84746,-3.25424 8.67796,-13.01695 8.67796,-13.01695 0,0 8.67797,-14.1017 -4.33898,-23.86441 -13.01695,-9.762712 -40.13559,-10.847458 -40.13559,-10.847458 0,0 15.18644,26.033898 -5.42373,47.728808 -20.61017,21.69492 -41.22034,10.84746 -41.22034,10.84746 0,0 -30.37288,-56.406776 -37.9661,-24.94915 z"
     id="path3791"
     inkscape:connector-curvature="0"
     sodipodi:nodetypes="cscscscsccccccccscssssscscscc" />
  <path
     style="fill:#000000;stroke:#000000;stroke-width:1px;stroke-linecap:butt;stroke-linejoin:miter;stroke-opacity:1"
     d="m 160.54237,234.30508 c 0,0 31.45763,42.30509 29.28814,60.74577 -2.16949,18.44068 1.08474,36.88135 1.08474,36.88135 l -18.44067,2.16949 -11.93221,-6.50847 -4.33898,9.76271 5.42373,17.35593 14.10169,17.35594 c 0,0 36.88136,-46.64407 78.1017,-45.55933 41.22034,1.08475 46.64407,-15.18644 45.55932,11.93221 -1.08475,27.11864 35.79661,5.42373 35.79661,5.42373 0,0 -4.33898,-120.40678 7.59322,-120.40678 11.9322,0 32.54237,6.50847 17.35593,-16.27119 -15.18644,-22.77966 -33.62712,-33.62712 -33.62712,-33.62712 0,0 -14.10169,1.08475 -16.27118,10.84746 -2.16949,9.76271 -103.05085,20.61017 -103.05085,20.61017 l 6.50848,20.61017 14.10169,4.33898 5.42373,3.25424 33.62712,-8.67797 52.06779,-8.67796 c 0,0 1.08475,56.40678 -7.59322,69.42373 -8.67796,13.01694 -68.33898,20.61016 -68.33898,20.61016 l -29.28813,8.67797 c 0,0 -9.76272,-110.64407 -53.15255,-80.27119 z"
     id="path3793"
     inkscape:connector-curvature="0" />
  <path
     style="fill:#000000;stroke:#000000;stroke-width:1px;stroke-linecap:butt;stroke-linejoin:miter;stroke-opacity:1"
     d="m 222.37288,272.27119 9.76271,6.50847 9.76272,2.16949 48.81355,-16.27118 -9.76271,-15.18644 -31.45762,4.33898 z"
     id="path3795"
     inkscape:connector-curvature="0" />
  <path
     style="fill:#000000;stroke:#000000;stroke-width:1px;stroke-linecap:butt;stroke-linejoin:miter;stroke-opacity:1"
     d="m 147.52542,399.18644 c 0,0 -27.11864,29.28814 -14.10169,53.15254 13.01695,23.86441 19.52542,-9.76271 19.52542,-9.76271 0,0 16.27119,-34.71186 -1.08474,-41.22034 -17.35594,-6.50847 -4.33899,-2.16949 -4.33899,-2.16949 z"
     id="path3797"
     inkscape:connector-curvature="0" />
  <path
     style="fill:#000000;stroke:#000000;stroke-width:1px;stroke-linecap:butt;stroke-linejoin:miter;stroke-opacity:1"
     d="m 195.25424,370.98305 c 0,0 31.45762,62.91526 53.15254,73.76271 21.69492,10.84746 24.94915,26.0339 87.86441,32.54238 62.91525,6.50847 86.77966,-5.42373 96.54237,-18.44068 9.76271,-13.01695 -42.30509,-35.79661 -67.25424,-82.44068 -24.94915,-46.64407 9.76271,69.42373 9.76271,69.42373 h -36.88135 c 0,0 -79.18644,-19.52543 -80.27119,-23.86441 -1.08474,-4.33898 -23.86441,-20.61017 -23.86441,-20.61017 l -20.61016,-26.0339 -13.01695,-6.50847 z"
     id="path3799"
     inkscape:connector-curvature="0" />
  <path
     style="fill:#000000;stroke:#000000;stroke-width:1px;stroke-linecap:butt;stroke-linejoin:miter;stroke-opacity:1"
     d="m 263.59322,357.9661 c 0,0 13.01695,37.9661 39.05085,39.05085 26.0339,1.08474 16.27118,-8.67797 16.27118,-8.67797 l -10.84745,-16.27118 3.25423,-18.44068 -17.35593,8.67796 z"
     id="path3801"
     inkscape:connector-curvature="0" />
  <path
     style="fill:#000000;stroke:#000000;stroke-width:1px;stroke-linecap:butt;stroke-linejoin:miter;stroke-opacity:1"
     d="m 386.16949,318.91525 c 0,0 67.25424,33.62712 72.67797,55.32204 5.42373,21.69491 22.77966,-17.35593 22.77966,-17.35593 l -35.79661,-33.62712 c 0,0 -43.38983,-14.1017 -59.66102,-4.33899 z"
     id="path3803"
     inkscape:connector-curvature="0" />
</svg>
