<?xml version="1.0" encoding="UTF-8" standalone="no"?>
<!-- Created with Inkscape (http://www.inkscape.org/) -->

<svg
   xmlns:dc="http://purl.org/dc/elements/1.1/"
   xmlns:cc="http://creativecommons.org/ns#"
   xmlns:rdf="http://www.w3.org/1999/02/22-rdf-syntax-ns#"
   xmlns:svg="http://www.w3.org/2000/svg"
   xmlns="http://www.w3.org/2000/svg"
   xmlns:sodipodi="http://sodipodi.sourceforge.net/DTD/sodipodi-0.dtd"
   xmlns:inkscape="http://www.inkscape.org/namespaces/inkscape"
   version="1.1"
   id="svg2"
   width="512"
   height="512"
   viewBox="0 0 512 512"
   sodipodi:docname="U+6301.svg"
   inkscape:version="0.92.4 (5da689c313, 2019-01-14)">
  <metadata
     id="metadata8">
    <rdf:RDF>
      <cc:Work
         rdf:about="">
        <dc:format>image/svg+xml</dc:format>
        <dc:type
           rdf:resource="http://purl.org/dc/dcmitype/StillImage" />
        <dc:title></dc:title>
      </cc:Work>
    </rdf:RDF>
  </metadata>
  <defs
     id="defs6" />
  <sodipodi:namedview
     pagecolor="#ffffff"
     bordercolor="#666666"
     borderopacity="1"
     objecttolerance="10"
     gridtolerance="10"
     guidetolerance="10"
     inkscape:pageopacity="0"
     inkscape:pageshadow="2"
     inkscape:window-width="1920"
     inkscape:window-height="1017"
     id="namedview4"
     showgrid="false"
     inkscape:zoom="1.84375"
     inkscape:cx="264.24079"
     inkscape:cy="267.66569"
     inkscape:window-x="-8"
     inkscape:window-y="-8"
     inkscape:window-maximized="1"
     inkscape:current-layer="svg2" />
  <path
     style="fill:#000000;stroke:#000000;stroke-width:1px;stroke-linecap:butt;stroke-linejoin:miter;stroke-opacity:1"
     d="m 142.1017,54.237288 c 0,0 -0.54238,5.966101 9.22033,17.898305 9.76272,11.932203 -3.79661,105.220337 -3.79661,105.220337 0,0 -50.440674,26.57627 -63.457623,23.32204 -13.016949,-3.25424 -4.338983,7.59322 -4.338983,7.59322 0,0 24.949156,29.8305 24.406776,33.62711 -0.54237,3.79661 36.88136,-13.01694 36.88136,-13.01694 l 1.08475,64.54237 -75.389836,48.27119 c 0,0 -16.813559,24.94915 -1.627118,28.20338 15.186441,3.25424 59.661014,-50.98305 70.508474,-56.40677 10.84746,-5.42373 5.42373,69.42372 3.25424,75.38983 C 136.67797,394.84746 105.76271,384 105.76271,384 L 84.067797,364.47458 73.220339,355.79661 64,364.47458 l 29.288136,24.94915 15.728814,8.67796 c 0,0 24.94915,0.54238 28.74576,28.20339 3.79661,27.66102 7.05085,37.42373 7.05085,37.42373 0,0 11.9322,0.54238 11.9322,-1.62712 0,-2.16949 13.01695,-3.79661 5.9661,-35.79661 -7.05084,-32 -17.8983,-105.22033 -11.9322,-118.77966 5.9661,-13.55932 37.42373,-45.55932 37.42373,-45.55932 l 27.66102,-30.37288 c 0,0 24.94915,-37.42373 -10.30509,-1.62712 -35.25424,35.79661 -47.18644,50.44068 -47.18644,50.44068 0,0 -8.13559,9.22034 -4.88135,-16.27119 3.25423,-25.49152 3.25423,-41.76271 3.25423,-41.76271 l 24.40678,-8.67797 c 0,0 41.76271,-38.50847 3.25424,-42.84745 -38.50847,-4.33899 -18.98305,-20.0678 -11.38983,-54.23729 7.59322,-34.169492 15.18644,-39.050848 15.18644,-39.050848 0,0 -33.08475,-48.271187 -43.9322,-22.237289 -10.84746,26.033899 -2.16949,-1.084745 -2.16949,-1.084745 z"
     id="path12"
     inkscape:connector-curvature="0" />
  <path
     style="fill:#000000;stroke:#000000;stroke-width:1px;stroke-linecap:butt;stroke-linejoin:miter;stroke-opacity:1"
     d="m 316.20339,28.203389 c 0,0 -8.67797,3.79661 4.33898,15.728814 13.01695,11.932203 -1.08474,87.322037 -1.08474,87.322037 l -43.38983,22.23729 c 0,0 9.22034,30.91525 27.66101,20.61016 18.44068,-10.30508 19.52543,-11.38983 19.52543,-11.38983 0,0 2.71186,33.62712 -3.25424,37.42373 -5.9661,3.79661 -147.52542,49.35594 -158.91525,40.67797 -11.38983,-8.67797 -6.50848,3.25424 -6.50848,3.25424 0,0 64,20.61017 76.47458,15.72881 12.47457,-4.88136 88.40678,-40.67797 88.40678,-40.67797 l -9.22034,11.93221 34.16949,-11.93221 2.71186,-9.22034 98.1695,-22.23728 48.81356,10.84745 5.9661,-16.81356 c 0,0 -40.1356,-33.08474 -66.16949,-18.44067 -26.0339,14.64406 -88.94916,31.45762 -88.94916,31.45762 l 4.88136,-47.18644 1.08474,-9.22034 52.0678,-29.8305 c 0,0 -8.67796,-19.525428 -21.15254,-13.559326 -12.47458,5.966106 -28.74576,9.220336 -28.74576,9.220336 l 1.62711,-38.508472 9.76272,-17.898305 c 0,0 -35.25424,-36.338983 -48.27119,-19.525424 z"
     id="path14"
     inkscape:connector-curvature="0" />
  <path
     style="fill:#000000;stroke:#000000;stroke-width:1px;stroke-linecap:butt;stroke-linejoin:miter;stroke-opacity:1"
     d="m 335.18644,243.52542 18.44068,14.1017 c 0,0 -138.30509,41.22034 -148.61017,34.71186 -10.30509,-6.50847 -0.54237,12.47458 -0.54237,12.47458 l 43.38983,21.69491 c 0,0 96,-61.28813 105.76271,-52.61017 9.76271,8.67797 14.10169,79.72882 7.05085,91.11865 -7.05085,11.38983 0,47.72881 -4.33899,54.23729 -4.33898,6.50847 -32,13.55932 -34.16949,9.76271 -2.16949,-3.79661 -40.67796,-40.67797 -42.84746,-35.79661 -2.16949,4.88135 30.37289,51.52542 30.37289,51.52542 l 46.64406,38.50848 c 0,0 16.81356,-3.25424 18.44068,-80.27119 1.62712,-77.01695 -5.42373,-128.54237 0.54237,-130.16949 5.96611,-1.62712 47.72882,-14.1017 67.79661,-7.59322 20.0678,6.50847 28.20339,-14.1017 28.20339,-14.1017 0,0 -38.50847,-20.06779 -50.98305,-15.72881 -12.47457,4.33898 -17.8983,12.47458 -17.8983,12.47458 l -25.49153,2.16949 c 0,0 -8.13559,-21.15254 -21.69491,-20.61017 -13.55932,0.54237 9.76271,-3.25424 -20.0678,14.10169 z"
     id="path16"
     inkscape:connector-curvature="0" />
  <path
     style="fill:#000000;stroke:#000000;stroke-width:1px;stroke-linecap:butt;stroke-linejoin:miter;stroke-opacity:1"
     d="m 285.28814,323.25424 c 0,0 9.22033,19.52542 0.54237,21.69491 -8.67797,2.16949 28.74576,13.01695 28.74576,13.01695 0,0 8.13559,-37.9661 -29.28813,-34.71186 z"
     id="path20"
     inkscape:connector-curvature="0" />
</svg>
