<?xml version="1.0" encoding="UTF-8" standalone="no"?>
<!-- Created with Inkscape (http://www.inkscape.org/) -->

<svg
   xmlns:dc="http://purl.org/dc/elements/1.1/"
   xmlns:cc="http://creativecommons.org/ns#"
   xmlns:rdf="http://www.w3.org/1999/02/22-rdf-syntax-ns#"
   xmlns:svg="http://www.w3.org/2000/svg"
   xmlns="http://www.w3.org/2000/svg"
   xmlns:sodipodi="http://sodipodi.sourceforge.net/DTD/sodipodi-0.dtd"
   xmlns:inkscape="http://www.inkscape.org/namespaces/inkscape"
   version="1.1"
   id="svg3713"
   width="512"
   height="512"
   viewBox="0 0 512 512"
   sodipodi:docname="U+6EFF.svg"
   inkscape:version="0.92.4 (5da689c313, 2019-01-14)">
  <metadata
     id="metadata3719">
    <rdf:RDF>
      <cc:Work
         rdf:about="">
        <dc:format>image/svg+xml</dc:format>
        <dc:type
           rdf:resource="http://purl.org/dc/dcmitype/StillImage" />
        <dc:title></dc:title>
      </cc:Work>
    </rdf:RDF>
  </metadata>
  <defs
     id="defs3717" />
  <sodipodi:namedview
     pagecolor="#ffffff"
     bordercolor="#666666"
     borderopacity="1"
     objecttolerance="10"
     gridtolerance="10"
     guidetolerance="10"
     inkscape:pageopacity="0"
     inkscape:pageshadow="2"
     inkscape:window-width="1920"
     inkscape:window-height="1017"
     id="namedview3715"
     showgrid="false"
     inkscape:zoom="1.6523438"
     inkscape:cx="256"
     inkscape:cy="256"
     inkscape:window-x="-8"
     inkscape:window-y="-8"
     inkscape:window-maximized="1"
     inkscape:current-layer="svg3713" />
  <path
     style="fill:#000000;stroke:#000000;stroke-width:1px;stroke-linecap:butt;stroke-linejoin:miter;stroke-opacity:1"
     d="m 99.858156,99.252955 2.420804,8.472815 c 0,0 23.60284,11.49882 26.62884,26.02364 3.02601,14.52482 -22.39243,24.81324 -22.39243,24.81324 L 68.387707,177.92908 52.652482,188.8227 c 0,0 3.631206,35.10165 21.182033,55.67848 17.550828,20.57683 0,29.65485 18.156029,25.41844 18.156026,-4.2364 19.971626,-16.94562 19.971626,-16.94562 0,0 -3.026,-13.91963 -25.418435,-33.28606 C 64.1513,200.32151 67.177305,191.2435 67.177305,191.2435 c 0,0 -6.65721,-3.02601 20.576832,-14.52482 C 114.98818,165.21986 177.32388,162.79905 162.79905,135.56501 148.27423,108.33097 122.25059,82.307329 99.858156,99.252955 Z"
     id="path3723"
     inkscape:connector-curvature="0" />
  <path
     style="fill:#000000;stroke:#000000;stroke-width:1px;stroke-linecap:butt;stroke-linejoin:miter;stroke-opacity:1"
     d="m 145.24823,323.78251 c -59.309696,47.81087 -102.884164,50.83688 -75.650121,74.43971 27.234042,23.60284 43.574471,38.12766 50.231681,32.68085 6.65721,-5.44681 -9.68322,0.6052 7.86761,-52.65248 17.55083,-53.25768 17.55083,-54.46808 17.55083,-54.46808 z"
     id="path3725"
     inkscape:connector-curvature="0" />
  <path
     style="fill:#000000;stroke:#000000;stroke-width:1px;stroke-linecap:butt;stroke-linejoin:miter;stroke-opacity:1"
     d="m 231.18676,95.621749 c -2.4208,19.366431 -8.47281,9.683211 -2.4208,19.366431 6.05201,9.68321 35.70685,40.54846 32.68085,49.62648 -3.02601,9.07801 -35.10166,4.2364 -35.10166,4.2364 0,0 -14.52482,-5.4468 -18.15602,-13.91962 -3.63121,-8.47281 -13.31443,14.52482 -13.31443,14.52482 0,0 32.07565,32.07565 27.83925,38.12766 -4.23641,6.05201 15.13002,4.23641 15.13002,4.23641 0,0 9.68322,-34.49645 24.81324,-25.41844 15.13002,9.07802 29.65485,20.57683 29.65485,20.57683 l -12.70922,-37.52246 c 0,0 29.65484,-32.68085 -10.28842,-54.46808 C 229.37116,93.200946 231.18676,95.621749 231.18676,95.621749 Z"
     id="path3727"
     inkscape:connector-curvature="0" />
  <path
     style="fill:#000000;stroke:#000000;stroke-width:1px;stroke-linecap:butt;stroke-linejoin:miter;stroke-opacity:1"
     d="m 324.38771,50.231678 c 0,0 51.44208,10.288417 14.52482,88.359342 -36.91726,78.07092 -36.91726,78.67612 -36.91726,78.67612 h -11.49882 l -6.05201,15.73522 3.63121,6.65721 -43.57447,10.28842 -11.49882,-4.84161 -3.026,7.26241 9.68321,12.10402 h 12.70922 l 15.73523,1.21041 21.18203,-6.05201 13.31442,4.2364 2.42081,49.62648 -3.02601,7.26241 c 0,0 -27.83924,-4.84161 -35.70685,-4.84161 -7.86762,0 4.2364,-28.44444 -9.68322,-31.47045 -13.91962,-3.026 -14.52482,-2.4208 -14.52482,-2.4208 0,0 -11.49882,69.59811 -25.41844,64.1513 -13.91962,-5.44681 -10.89362,-56.88889 -10.89362,-56.88889 l 1.8156,-18.76123 c 0,0 -35.10165,-30.86525 -42.36406,-25.41844 -7.26241,5.44681 15.13002,34.49646 15.13002,34.49646 0,0 17.55083,82.91253 4.23641,93.20094 -13.31442,10.28842 25.41844,30.26005 25.41844,30.26005 0,0 -12.70922,-44.78487 -1.8156,-45.99527 10.89361,-1.2104 12.10401,0.6052 12.10401,0.6052 l 12.10402,-5.44681 c 0,0 9.07802,-25.41844 22.39244,-27.23404 13.31442,-1.81561 40.54846,15.13002 40.54846,15.13002 l 7.86761,3.63121 c 0,0 -4.2364,22.99763 4.84161,29.04964 9.07802,6.05201 13.91962,8.47282 13.91962,8.47282 l -3.026,-55.67849 -6.65721,-10.28842 c 0,0 3.6312,-61.73049 8.47281,-63.5461 4.84161,-1.8156 96.83215,-29.04964 110.75177,-21.78723 13.91963,7.26241 14.52483,30.26005 14.52483,30.26005 0,0 0,93.20094 -10.89362,100.46335 -10.89362,7.26241 -34.49645,6.65721 -34.49645,6.65721 l -12.10402,0.6052 c 0,0 39.33806,24.20804 38.12766,47.20568 -1.21041,22.99763 24.81324,0.6052 24.81324,0.6052 0,0 9.07801,-181.56028 15.13002,-179.74468 6.05201,1.8156 -13.31442,-29.04965 -44.78487,-24.20804 -31.47045,4.84161 -97.43735,20.57683 -97.43735,20.57683 l -7.86762,-10.28841 c 0,0 32.68086,-47.81088 39.33807,-54.46809 6.65721,-6.65721 88.96454,-15.13002 96.22695,-24.81324 7.26241,-9.68321 33.89125,-36.31205 -23.60284,-24.81324 C 370.98818,129.513 370.98818,129.513 370.98818,129.513 l 9.07801,-29.04964 9.07802,-7.262414 c 0,0 -9.68322,-58.704492 -26.02364,-57.49409 -16.34043,1.210402 -45.39007,-5.446809 -38.73286,14.524822 z"
     id="path3729"
     inkscape:connector-curvature="0" />
  <path
     style="fill:#000000;stroke:#000000;stroke-width:1px;stroke-linecap:butt;stroke-linejoin:miter;stroke-opacity:1"
     d="m 355.25296,267.49882 c -1.21041,3.026 -19.36644,62.9409 -22.99764,67.7825 -3.63121,4.84161 4.84161,4.84161 4.84161,4.84161 l 24.20803,-26.02364 c 0,0 18.76123,-1.8156 36.31206,21.18203 17.55083,22.99764 19.36643,-4.2364 19.36643,-4.2364 0,0 8.47281,-9.68322 -18.76123,-16.94563 -27.23404,-7.26241 -27.83924,-7.26241 -27.83924,-7.26241 0,0 26.02364,-22.99764 8.47281,-36.31206 -17.55083,-13.31442 -23.60283,-3.026 -23.60283,-3.026 z"
     id="path3731"
     inkscape:connector-curvature="0" />
</svg>
