<?xml version="1.0" encoding="UTF-8" standalone="no"?>
<!-- Created with Inkscape (http://www.inkscape.org/) -->

<svg
   xmlns:dc="http://purl.org/dc/elements/1.1/"
   xmlns:cc="http://creativecommons.org/ns#"
   xmlns:rdf="http://www.w3.org/1999/02/22-rdf-syntax-ns#"
   xmlns:svg="http://www.w3.org/2000/svg"
   xmlns="http://www.w3.org/2000/svg"
   xmlns:sodipodi="http://sodipodi.sourceforge.net/DTD/sodipodi-0.dtd"
   xmlns:inkscape="http://www.inkscape.org/namespaces/inkscape"
   version="1.1"
   id="svg3759"
   width="512"
   height="512"
   viewBox="0 0 512 512"
   sodipodi:docname="U+7269.svg"
   inkscape:version="0.92.4 (5da689c313, 2019-01-14)">
  <metadata
     id="metadata3765">
    <rdf:RDF>
      <cc:Work
         rdf:about="">
        <dc:format>image/svg+xml</dc:format>
        <dc:type
           rdf:resource="http://purl.org/dc/dcmitype/StillImage" />
        <dc:title></dc:title>
      </cc:Work>
    </rdf:RDF>
  </metadata>
  <defs
     id="defs3763" />
  <sodipodi:namedview
     pagecolor="#ffffff"
     bordercolor="#666666"
     borderopacity="1"
     objecttolerance="10"
     gridtolerance="10"
     guidetolerance="10"
     inkscape:pageopacity="0"
     inkscape:pageshadow="2"
     inkscape:window-width="1920"
     inkscape:window-height="1017"
     id="namedview3761"
     showgrid="false"
     inkscape:zoom="1.84375"
     inkscape:cx="119.17433"
     inkscape:cy="186.25518"
     inkscape:window-x="-8"
     inkscape:window-y="-8"
     inkscape:window-maximized="1"
     inkscape:current-layer="svg3759" />
  <path
     style="fill:#000000;stroke:#000000;stroke-width:1px;stroke-linecap:butt;stroke-linejoin:miter;stroke-opacity:1"
     d="m 141.01695,24.406779 c 0,0 -22.77966,16.271187 -6.50848,24.949153 16.27119,8.677966 19.52543,-14.644068 22.77967,40.135593 C 160.54237,144.27119 162.16949,192 162.16949,192 c 0,0 -29.83051,14.64407 -39.05085,12.47458 -9.22033,-2.1695 -11.38983,-24.94916 -25.491521,-30.91526 -14.101695,-5.9661 -12.474577,-5.42373 -12.474577,-5.42373 0,0 -7.59322,12.47458 -1.627118,17.89831 5.966102,5.42373 16.813556,14.64407 8.135593,34.16949 -8.677966,19.52542 -22.237288,49.8983 -46.644068,52.0678 -24.406779,2.16949 -27.661017,13.55932 -27.661017,13.55932 0,0 -9.2203388,9.22034 4.338983,7.05085 13.559322,-2.1695 34.169492,-5.96611 34.169492,-5.96611 0,0 39.59322,-24.40678 39.59322,-36.88135 0,-12.47458 14.644073,-31.45763 14.644073,-31.45763 0,0 4.88135,-5.9661 10.30508,15.18644 5.42373,21.15254 28.74576,9.76271 28.74576,9.76271 l 9.76271,-4.88135 v 57.49152 c 0,0 -73.762708,60.74577 -85.694911,55.86441 -11.932203,-4.88136 -17.355932,-8.13559 -17.355932,-8.13559 0,0 -16.81356,-3.79661 -7.050848,14.64406 9.762712,18.44068 33.084746,30.37289 40.135594,41.76272 C 96,411.66102 152.40678,342.23729 152.40678,342.23729 l 6.50847,-7.05085 c 0,0 2.71187,47.72881 0,68.33898 -2.71186,20.61017 -2.16949,36.88136 -9.22033,25.49153 -7.05085,-11.38983 -8.1356,11.9322 -8.1356,11.9322 0,0 -3.25424,13.01695 2.16949,18.44068 5.42373,5.42373 23.86441,16.81356 24.94916,27.11864 1.08474,10.30509 8.67796,-7.59322 8.67796,-7.59322 0,0 1.62712,-13.55932 -2.71186,-60.74576 -4.33899,-47.18644 -2.71187,-89.49152 -2.71187,-89.49152 0,0 -3.79661,-11.93221 18.98305,-23.32204 22.77967,-11.38983 23.86441,-53.69491 23.86441,-53.69491 0,0 -22.23729,28.20339 -30.91525,32 -8.67797,3.79661 -9.76271,-49.35594 -9.76271,-49.35594 l 38.50847,-24.94915 c 0,0 18.44068,-49.8983 -9.22034,-37.9661 -27.66102,11.9322 -28.74576,9.76271 -28.74576,9.76271 0,0 -4.88136,17.89831 3.25424,-46.64407 8.13559,-64.542369 9.22033,-65.627115 9.22033,-65.627115 0,0 5.96611,-12.474576 -8.13559,-17.355932 -14.10169,-4.881356 -10.84746,-15.18644 -10.84746,-15.18644 0,0 -19.52542,-17.898306 -27.11864,-11.932204 z"
     id="path3769"
     inkscape:connector-curvature="0" />
  <path
     style="fill:#000000;stroke:#000000;stroke-width:1px;stroke-linecap:butt;stroke-linejoin:miter;stroke-opacity:1"
     d="m 278.23729,143.72881 c 0,0 26.0339,16.81356 -11.9322,60.74577 -37.96611,43.9322 -34.1695,42.84745 -34.1695,42.84745 0,0 -8.13559,9.76272 6.50848,1.62712 14.64407,-8.13559 66.16949,-61.28813 71.05085,-77.01695 4.88135,-15.72881 -12.47458,-46.64406 -31.45763,-28.20339 z"
     id="path3771"
     inkscape:connector-curvature="0" />
  <path
     style="fill:#000000;stroke:#000000;stroke-width:1px;stroke-linecap:butt;stroke-linejoin:miter;stroke-opacity:1"
     d="m 322.16949,180.0678 c -1.08474,3.79661 -15.72881,17.8983 -6.50847,36.33898 9.22034,18.44068 17.8983,2.16949 17.8983,2.16949 l 109.01695,-29.83051 c 0,0 37.9661,-10.30508 13.55932,28.20339 -24.40678,38.50848 -44.47457,131.25424 -78.10169,154.0339 -33.62712,22.77966 -37.42373,-17.35593 -37.42373,-17.35593 0,0 -15.72881,-1.62712 5.9661,60.20339 21.69492,61.83051 41.22034,3.79661 41.22034,3.79661 0,0 84.0678,-202.30509 101.42373,-206.64407 17.35593,-4.33898 -29.83051,-37.9661 -29.28814,-45.01695 0.54238,-7.05085 -103.59322,36.33898 -113.8983,22.23729 -10.30509,-14.1017 -14.1017,-20.61017 -23.86441,-8.13559 z"
     id="path3773"
     inkscape:connector-curvature="0" />
  <path
     style="fill:#000000;stroke:#000000;stroke-width:1px;stroke-linecap:butt;stroke-linejoin:miter;stroke-opacity:1"
     d="m 330.30509,232.67797 c 0,0 -43.38984,68.88135 -72.67797,76.47457 -29.28814,7.59322 -12.47458,18.44068 -12.47458,18.44068 0,0 7.59322,7.05085 37.42373,-21.15254 29.83051,-28.20339 47.18644,-62.91526 56.40678,-60.74577 9.22034,2.1695 10.84746,-14.64406 3.25424,-15.72881 -7.59322,-1.08474 -11.9322,2.71187 -11.9322,2.71187 z"
     id="path3775"
     inkscape:connector-curvature="0" />
  <path
     style="fill:#000000;stroke:#000000;stroke-width:1px;stroke-linecap:butt;stroke-linejoin:miter;stroke-opacity:1"
     d="m 380.74576,235.38983 c 0,0 -59.66101,97.08475 -94.91525,120.40678 -35.25424,23.32203 -53.69492,45.01695 -60.74576,40.13559 -7.05085,-4.88135 -7.05085,-8.13559 -7.05085,-8.13559 0,0 -11.9322,-7.05085 -7.05085,12.47458 4.88136,19.52542 9.76271,22.77966 9.76271,22.77966 0,0 1.62712,9.76271 19.52543,-8.67797 17.8983,-18.44068 114.44067,-101.42373 144.27118,-156.74576 29.83051,-55.32204 -3.79661,-22.23729 -3.79661,-22.23729 z"
     id="path3777"
     inkscape:connector-curvature="0" />
</svg>
