<?xml version="1.0" encoding="UTF-8" standalone="no"?>
<!-- Created with Inkscape (http://www.inkscape.org/) -->

<svg
   xmlns:dc="http://purl.org/dc/elements/1.1/"
   xmlns:cc="http://creativecommons.org/ns#"
   xmlns:rdf="http://www.w3.org/1999/02/22-rdf-syntax-ns#"
   xmlns:svg="http://www.w3.org/2000/svg"
   xmlns="http://www.w3.org/2000/svg"
   xmlns:sodipodi="http://sodipodi.sourceforge.net/DTD/sodipodi-0.dtd"
   xmlns:inkscape="http://www.inkscape.org/namespaces/inkscape"
   version="1.1"
   id="svg2"
   width="512"
   height="512"
   viewBox="0 0 512 512"
   sodipodi:docname="U+7235.svg"
   inkscape:version="0.92.4 (5da689c313, 2019-01-14)">
  <metadata
     id="metadata8">
    <rdf:RDF>
      <cc:Work
         rdf:about="">
        <dc:format>image/svg+xml</dc:format>
        <dc:type
           rdf:resource="http://purl.org/dc/dcmitype/StillImage" />
        <dc:title></dc:title>
      </cc:Work>
    </rdf:RDF>
  </metadata>
  <defs
     id="defs6" />
  <sodipodi:namedview
     pagecolor="#ffffff"
     bordercolor="#666666"
     borderopacity="1"
     objecttolerance="10"
     gridtolerance="10"
     guidetolerance="10"
     inkscape:pageopacity="0"
     inkscape:pageshadow="2"
     inkscape:window-width="1920"
     inkscape:window-height="1017"
     id="namedview4"
     showgrid="false"
     inkscape:zoom="1.3037281"
     inkscape:cx="264.45243"
     inkscape:cy="325.32222"
     inkscape:window-x="-8"
     inkscape:window-y="-8"
     inkscape:window-maximized="1"
     inkscape:current-layer="svg2" />
  <path
     style="fill:#000000;stroke:#000000;stroke-width:1px;stroke-linecap:butt;stroke-linejoin:miter;stroke-opacity:1"
     d="m 60.595456,126.9504 c 0,0 58.294364,13.80655 217.069794,-91.276704 l 6.90328,-6.90328 -13.80656,-19.9428079 h 18.40875 C 308.3465,19.566043 334.42555,29.537447 329.05634,39.508851 323.68712,49.480256 246.67407,78.418365 230.10933,87.83181 211.83444,98.217099 77.402726,162.27319 60.595456,126.9504 Z"
     id="path12"
     inkscape:connector-curvature="0"
     sodipodi:nodetypes="cccccssc" />
  <path
     style="fill:#000000;stroke:#000000;stroke-width:1px;stroke-linecap:butt;stroke-linejoin:miter;stroke-opacity:1"
     d="m 60.595456,126.9504 c 11.505466,-4.60219 0,0 0,0 z"
     id="path14"
     inkscape:connector-curvature="0" />
  <path
     style="fill:#000000;stroke:#000000;stroke-width:1px;stroke-linecap:butt;stroke-linejoin:miter;stroke-opacity:1"
     d="m 91.276699,180.64257 -2.301093,7.67031 16.874684,25.31203 c 0,0 46.02186,19.94281 46.02186,37.58452 0,17.64172 -2.30109,10.73844 -2.30109,10.73844 0,0 13.80656,16.10765 20.70984,12.27249 6.90328,-3.83515 -28.38015,-20.70984 182.5534,-44.4878 9.20437,-4.60219 9.20437,-4.60219 9.20437,-4.60219 l -7.67031,-6.13624 c 0,0 -178.71824,18.40874 -184.85449,26.07905 -6.13625,7.67031 -16.10765,-39.88561 -78.237171,-64.43061 z"
     id="path16"
     inkscape:connector-curvature="0" />
  <path
     style="fill:#000000;stroke:#000000;stroke-width:1px;stroke-linecap:butt;stroke-linejoin:miter;stroke-opacity:1"
     d="m 172.58199,132.31961 c 0,0 -1.53406,29.91422 13.80656,41.41968 -1.53406,8.43734 3.83516,7.67031 -1.53406,8.43734 -5.36922,0.76703 -16.10765,-1.53406 -16.10765,-1.53406 0,0 2.30109,19.17578 26.84609,16.87469 24.54499,-2.3011 158.77543,-58.29437 192.5248,-35.28343 -11.50547,26.07905 -11.50547,26.07905 -11.50547,26.07905 l -10.73843,-4.60218 c 0,0 -4.60219,25.31202 5.36922,26.07905 9.9714,0.76703 43.72077,-25.31202 49.85702,-49.85702 6.13624,-24.54499 -29.14719,-15.34062 -29.14719,-15.34062 -52.92514,5.36922 -88.9756,13.03953 -88.9756,13.03953 0,0 58.29436,-55.22624 69.79983,-52.15812 11.50546,3.06813 -19.17578,-29.914208 -19.17578,-29.914208 l -27.61312,-6.903279 c 0,0 -13.80656,-3.835156 -4.60219,3.068124 9.20438,6.90328 49.85703,22.243902 -29.14718,80.538263 -4.60218,6.90328 -6.90328,6.90328 -6.90328,6.90328 l -72.10092,14.57359 c 0,0 -27.61312,-43.72077 -40.65265,-41.41968 z"
     id="path18"
     inkscape:connector-curvature="0" />
  <path
     style="fill:#000000;stroke:#000000;stroke-width:1px;stroke-linecap:butt;stroke-linejoin:miter;stroke-opacity:1"
     d="m 251.5862,93.968059 c 0,0 -9.20438,24.544991 18.40874,48.322961 27.61312,23.77796 18.40875,-9.97141 20.70984,-16.10766 2.30109,-6.13624 -6.90328,-17.64171 -6.90328,-17.64171 0,0 9.97141,19.94281 -32.2153,-14.573591 z"
     id="path20"
     inkscape:connector-curvature="0" />
  <path
     style="fill:#000000;stroke:#000000;stroke-width:1px;stroke-linecap:butt;stroke-linejoin:miter;stroke-opacity:1"
     d="m 199.42808,209.78975 c 0,0 3.83516,17.64172 19.94281,14.57359 16.10765,-3.06812 -9.9714,-15.34062 81.3053,-21.47687 7.67031,-4.60218 7.67031,-4.60218 7.67031,-4.60218 l -24.545,-12.2725 c 0,0 -25.31202,14.57359 -84.37342,23.77796 z"
     id="path22"
     inkscape:connector-curvature="0" />
  <path
     style="fill:#000000;stroke:#000000;stroke-width:1px;stroke-linecap:butt;stroke-linejoin:miter;stroke-opacity:1"
     d="m 121.95794,296.46427 c 0,0 -16.87468,15.34062 -11.50546,18.40874 5.36921,3.06813 21.47687,0 21.47687,0 l -5.36922,30.68124 0.76703,23.77797 8.43734,7.67031 6.13625,-41.41968 16.10765,-10.73843 1.53407,-11.50547 63.66358,-16.10765 9.9714,9.9714 -7.67031,59.06139 -82.83936,19.17578 c 0,0 -5.36922,-0.76703 -5.36922,-3.83515 0,-3.06813 -1.53406,-9.20438 -1.53406,-9.20438 l -10.73843,-2.30109 c 0,0 6.13625,72.86795 -4.60219,83.60639 -10.73843,10.73843 -29.147181,16.87468 -29.147181,16.87468 0,0 22.243901,9.20437 39.885621,1.53406 17.64171,-7.67031 79.0042,-54.4592 90.50966,-49.08999 11.50547,5.36922 29.14718,11.50547 29.14718,11.50547 l 3.06813,-17.64171 c 0,0 -14.57359,-19.94281 -32.98234,-24.545 -6.90328,-5.36922 -6.90328,-5.36922 -6.90328,-5.36922 l -10.73843,-0.76703 13.80656,26.84609 c -13.03953,6.13625 -75.16905,34.5164 -75.16905,34.5164 0,0 -8.43734,-42.95374 0.76703,-42.95374 9.20437,0 77.47014,-28.38015 95.87889,-23.77797 18.40874,4.60219 -19.17578,-3.06812 25.31202,-92.81076 -26.07905,-13.80656 -40.65264,-10.73843 -40.65264,-10.73843 0,0 -52.92515,27.61312 -101.24811,19.17578 z"
     id="path35"
     inkscape:connector-curvature="0" />
  <path
     style="fill:#000000;stroke:#000000;stroke-width:1px;stroke-linecap:butt;stroke-linejoin:miter;stroke-opacity:1"
     d="m 159.54247,340.18504 c 0,0 0,18.40874 11.50546,14.57359 11.50547,-3.83516 39.11859,-20.70984 39.11859,-20.70984 l -15.34062,-9.20437 z"
     id="path37"
     inkscape:connector-curvature="0" />
  <path
     style="fill:#000000;stroke:#000000;stroke-width:1px;stroke-linecap:butt;stroke-linejoin:miter;stroke-opacity:1"
     d="m 273.8301,309.50379 c 0,0 -18.40875,13.03953 1.53406,26.07906 10.73843,9.9714 10.73843,9.9714 10.73843,9.9714 0,0 49.85703,-25.31202 53.69218,-12.27249 3.83516,13.03953 2.30109,136.53153 -0.76703,132.69637 -3.06812,-3.83515 -15.34062,-7.67031 -15.34062,-7.67031 0,0 16.10765,32.98234 21.47687,42.95374 5.36922,9.97141 8.43734,18.40875 12.2725,2.3011 3.83515,-16.10765 -3.06813,-175.65012 -5.36922,-171.81497 -2.3011,3.83516 -16.10765,-9.9714 84.37342,-18.40874 23.01093,-12.2725 23.01093,-12.2725 23.01093,-12.2725 0,0 2.30109,-13.03953 -32.98234,-7.67031 -35.28343,5.36922 -71.33389,13.03953 -71.33389,13.03953 0,0 3.83516,-41.41968 9.97141,-41.41968 6.13625,0 -36.8175,-25.31203 -43.72078,-19.17578 -6.90328,6.13625 9.20438,1.53407 11.50547,17.64172 2.30109,16.10765 3.06813,45.25483 3.06813,45.25483 0,0 -55.22624,14.57359 -62.12952,0.76703 z"
     id="path39"
     inkscape:connector-curvature="0" />
  <path
     style="fill:#000000;stroke:#000000;stroke-width:1px;stroke-linecap:butt;stroke-linejoin:miter;stroke-opacity:1"
     d="m 274.59713,361.66191 c 0,0 36.05046,2.30109 39.88561,14.57359 3.83516,12.2725 -1.53406,17.64171 -1.53406,17.64171 0,0 -12.27249,9.20438 -38.35155,-32.2153 z"
     id="path43"
     inkscape:connector-curvature="0" />
</svg>
