<?xml version="1.0" encoding="UTF-8" standalone="no"?>
<!-- Created with Inkscape (http://www.inkscape.org/) -->

<svg
   xmlns:dc="http://purl.org/dc/elements/1.1/"
   xmlns:cc="http://creativecommons.org/ns#"
   xmlns:rdf="http://www.w3.org/1999/02/22-rdf-syntax-ns#"
   xmlns:svg="http://www.w3.org/2000/svg"
   xmlns="http://www.w3.org/2000/svg"
   xmlns:sodipodi="http://sodipodi.sourceforge.net/DTD/sodipodi-0.dtd"
   xmlns:inkscape="http://www.inkscape.org/namespaces/inkscape"
   width="512"
   height="512"
   viewBox="0 0 512 512"
   version="1.1"
   id="svg8"
   inkscape:version="0.92.4 (5da689c313, 2019-01-14)"
   sodipodi:docname="U+75B2.svg">
  <defs
     id="defs2" />
  <sodipodi:namedview
     id="base"
     pagecolor="#ffffff"
     bordercolor="#666666"
     borderopacity="1.0"
     inkscape:pageopacity="0.0"
     inkscape:pageshadow="2"
     inkscape:zoom="1.979899"
     inkscape:cx="58.853306"
     inkscape:cy="266.56805"
     inkscape:document-units="px"
     inkscape:current-layer="layer1"
     showgrid="false"
     units="px"
     inkscape:window-width="1920"
     inkscape:window-height="1017"
     inkscape:window-x="-8"
     inkscape:window-y="-8"
     inkscape:window-maximized="1">
    <inkscape:grid
       type="xygrid"
       id="grid3724" />
  </sodipodi:namedview>
  <metadata
     id="metadata5">
    <rdf:RDF>
      <cc:Work
         rdf:about="">
        <dc:format>image/svg+xml</dc:format>
        <dc:type
           rdf:resource="http://purl.org/dc/dcmitype/StillImage" />
        <dc:title></dc:title>
      </cc:Work>
    </rdf:RDF>
  </metadata>
  <g
     inkscape:label="圖層 1"
     inkscape:groupmode="layer"
     id="layer1"
     transform="translate(0,-161.53331)">
    <path
       style="fill:#000000;stroke:#000000;stroke-width:1px;stroke-linecap:butt;stroke-linejoin:miter;stroke-opacity:1"
       d="m 209.10158,207.85299 c 0,0 -29.29443,-12.12183 -7.07107,-20.20305 22.22336,-8.08123 45.45686,9.09137 45.45686,9.09137 0,0 25.25382,21.2132 22.22336,33.33503 -3.03046,12.12183 -1.01015,27.27412 -16.16244,32.32488 -15.15229,5.05077 -5.05076,-28.28427 -44.44671,-54.54823 z"
       id="path3726"
       inkscape:connector-curvature="0" />
    <path
       style="fill:#000000;stroke:#000000;stroke-width:1px;stroke-linecap:butt;stroke-linejoin:miter;stroke-opacity:1"
       d="m 110.10663,267.45199 c 0,0 -4.04061,13.13198 21.2132,5.05076 25.25381,-8.08122 228.29448,-49.49748 228.29448,-49.49748 0,0 19.19289,-20.20305 36.36549,-11.11167 17.17259,9.09137 43.43656,33.33503 12.12183,36.36549 -31.31473,3.03046 -68.69037,2.0203 -68.69037,2.0203 0,0 -5.05077,-5.05076 9.09137,-12.12183 14.14213,-7.07107 -20.97297,-1.41598 -31.31473,0 -29.78628,4.07831 -57.98061,15.93235 -86.87312,24.24366 -18.22503,5.24267 -36.88065,9.27089 -54.54824,16.16244 -17.81734,6.94997 -46.46701,20.20306 -51.51778,25.25382 -5.05076,5.05076 -16.16244,-11.11168 -24.24366,-16.16244 -8.081218,-5.05077 10.10153,-20.20305 10.10153,-20.20305 z"
       id="path3728"
       inkscape:connector-curvature="0"
       sodipodi:nodetypes="cscsscsaaascc" />
    <path
       style="fill:#000000;stroke:#000000;stroke-width:1px;stroke-linecap:butt;stroke-linejoin:miter;stroke-opacity:1"
       d="m 142.14286,310.67617 c 13.57143,8.57143 16.42857,5 13.57143,8.57143 -2.85715,3.57142 -7.14286,22.14285 -7.14286,22.14285 l -3.57143,35 h 1.42857 l -2.14286,76.42857 c 0,0 -2.14285,10.71429 -19.28571,52.85715 -17.14286,42.14285 -37.857143,35.71428 -45.714286,36.42857 -7.857142,0.71428 -1.428571,29.28571 -1.428571,29.28571 l -4.285714,10.71429 c 0,0 5.714285,16.42857 2.142857,5 C 72.142857,575.67617 80,598.53331 80,598.53331 l 14.285714,-0.71429 16.428576,-22.85714 25,-46.42857 12.14285,-30 13.57143,-142.14286 10,-30 c 0,0 -7.14286,-22.14285 -25.71428,-14.28571 -18.57143,7.85714 -3.57143,-1.42857 -3.57143,-1.42857 z"
       id="path3730"
       inkscape:connector-curvature="0" />
    <path
       style="fill:#000000;stroke-width:0.71428573"
       d=""
       id="path3734"
       inkscape:connector-curvature="0"
       transform="translate(0,161.53331)" />
    <path
       style="fill:#000000;stroke:#000000;stroke-width:1px;stroke-linecap:butt;stroke-linejoin:miter;stroke-opacity:1"
       d="m 52.142857,343.82918 2.142858,19.28571 17.142857,17.14286 5.714286,10 -5,7.14285 21.428571,4.28572 19.285721,-5 c 0,0 -5.71429,-41.42857 -37.85715,-40 -32.142857,1.42857 -19.285714,-14.28572 -22.857143,-12.85714 z"
       id="path3746"
       inkscape:connector-curvature="0" />
    <path
       style="fill:#000000;stroke:#000000;stroke-width:1px;stroke-linecap:butt;stroke-linejoin:miter;stroke-opacity:1"
       d="m 40.714286,454.96188 c 0,0 -32.1428574,-7.14286 -24.285715,33.57143 7.857143,40.71429 22.857143,22.14286 22.857143,22.14286 l 17.857143,-19.28572 61.428573,-65 c 0,0 -66.428573,45.71429 -77.857144,28.57143 z"
       id="path3748"
       inkscape:connector-curvature="0" />
    <path
       style="fill:#000000;stroke:#000000;stroke-width:1px;stroke-linecap:butt;stroke-linejoin:miter;stroke-opacity:1"
       d="m 190.71429,363.53331 c 0.71428,3.57143 10,12.14286 10,12.14286 l 10.71428,13.57143 2.14286,19.28571 -1.42857,32.14286 c 0,0 -1.42857,13.57143 -2.85715,18.57143 -1.42857,5 -5.71428,29.28571 -5.71428,29.28571 l -21.42857,74.28571 c 0,0 -35.71429,53.57143 -65.71429,73.57143 -29.999998,20 15.71429,-4.28571 15.71429,-4.28571 0,0 46.42857,-35.71429 58.57143,-60 C 202.85714,547.81902 225,494.2476 229.28571,431.39045 c 4.28572,-62.85714 17.85715,-51.42857 -38.57142,-67.85714 z"
       id="path3750"
       inkscape:connector-curvature="0" />
    <path
       style="fill:#000000;stroke:#000000;stroke-width:1px;stroke-linecap:butt;stroke-linejoin:miter;stroke-opacity:1"
       d="M 252.14286,349.96188 240,362.10474 l 13.57143,22.85714 5,1.42857 23.57143,-12.14285 3.57143,5.71428 -10,48.57143 -30,20 2.85714,20.71429 c 0,0 3.57143,22.14285 21.42857,-2.14286 17.85715,-24.28572 39.28572,-42.85714 39.28572,-42.85714 l 12.14286,-7.14286 14.28571,3.57143 c 0,0 13.57143,25 -16.42857,80.71428 -30,55.71429 -85,72.14286 -85,72.14286 0,0 -24.28572,6.42857 -35,-10.71429 -10.71429,-17.14285 -12.85714,-5.71428 7.85714,24.28572 20.71429,30 124.28572,-51.42857 121.42857,-60.71429 -2.85714,-9.28571 101.42857,51.42857 115.71429,79.28572 14.28571,27.85714 28.57143,-7.85715 23.57143,3.57143 -5,11.42857 4.28571,-7.85715 4.28571,-7.85715 l -30,-35 c 0,0 -74.28571,-49.28571 -102.85714,-52.14285 -28.57143,-2.85715 -2.85714,-4.28572 -2.85714,-4.28572 l 27.14285,-54.28571 4.28572,-23.57143 c 0,0 -2.14286,-22.85714 -41.42857,-22.85714 -39.28572,0 -30.71429,15.71428 -35.71429,12.85714 -5,-2.85714 8.57143,-55.71429 8.57143,-55.71429 0,0 87.85714,-56.42857 52.14286,10.71429 -35.71429,67.14286 51.42857,-25.71429 51.42857,-25.71429 l -8.57143,-19.28571 c 0,0 -20.71429,-35.71429 -37.14286,-19.28572 -16.42857,16.42858 -17.85714,11.42858 -17.85714,11.42858 l -35,17.85714 v -32.14286 c 0,0 -28.57143,-37.14286 -47.14286,-20.71428 -18.57143,16.42857 0,2.85714 0,2.85714 0,0 15,-3.57143 27.85714,34.28571 12.0347,35.43552 -32.85714,23.57143 -32.85714,23.57143 z"
       id="path3752"
       inkscape:connector-curvature="0"
       sodipodi:nodetypes="cccccccccscccscsssssccscccsscsccscccscsc" />
    <path
       style="fill:#000000;stroke:#000000;stroke-width:1px;stroke-linecap:butt;stroke-linejoin:miter;stroke-opacity:1"
       d="M 310.71429,513.53331 C 233.57143,482.10474 270,494.2476 232.85714,482.10474 c -37.14285,-12.14286 82.85715,21.42857 82.85715,21.42857 l 5.71428,2.14286 z"
       id="path3754"
       inkscape:connector-curvature="0" />
    <path
       style="fill:#000000;stroke-width:0.71428573"
       d="m 88.192945,218.92888 c 0.03428,-0.83211 0.203529,-1.00136 0.431548,-0.43155 0.206336,0.51562 0.18096,1.1317 -0.05639,1.36905 -0.237351,0.23735 -0.406172,-0.18453 -0.375157,-0.9375 z"
       id="path3756"
       inkscape:connector-curvature="0"
       transform="translate(0,161.53331)" />
    <path
       style="fill:#000000;stroke-width:0.71428573"
       d="m 89.565126,213.27411 c 0,-0.58928 0.321428,-1.07142 0.714286,-1.07142 0.392857,0 0.714285,0.48214 0.714285,1.07142 0,0.58929 -0.321428,1.07143 -0.714285,1.07143 -0.392858,0 -0.714286,-0.48214 -0.714286,-1.07143 z"
       id="path3758"
       inkscape:connector-curvature="0"
       transform="translate(0,161.53331)" />
  </g>
</svg>
