<?xml version="1.0" encoding="UTF-8" standalone="no"?>
<!-- Created with Inkscape (http://www.inkscape.org/) -->

<svg
   xmlns:dc="http://purl.org/dc/elements/1.1/"
   xmlns:cc="http://creativecommons.org/ns#"
   xmlns:rdf="http://www.w3.org/1999/02/22-rdf-syntax-ns#"
   xmlns:svg="http://www.w3.org/2000/svg"
   xmlns="http://www.w3.org/2000/svg"
   xmlns:sodipodi="http://sodipodi.sourceforge.net/DTD/sodipodi-0.dtd"
   xmlns:inkscape="http://www.inkscape.org/namespaces/inkscape"
   version="1.1"
   id="svg21"
   width="512"
   height="512"
   viewBox="0 0 512 512"
   sodipodi:docname="U+771E.svg"
   inkscape:version="0.92.4 (5da689c313, 2019-01-14)">
  <metadata
     id="metadata27">
    <rdf:RDF>
      <cc:Work
         rdf:about="">
        <dc:format>image/svg+xml</dc:format>
        <dc:type
           rdf:resource="http://purl.org/dc/dcmitype/StillImage" />
        <dc:title></dc:title>
      </cc:Work>
    </rdf:RDF>
  </metadata>
  <defs
     id="defs25" />
  <sodipodi:namedview
     pagecolor="#ffffff"
     bordercolor="#666666"
     borderopacity="1"
     objecttolerance="10"
     gridtolerance="10"
     guidetolerance="10"
     inkscape:pageopacity="0"
     inkscape:pageshadow="2"
     inkscape:window-width="1920"
     inkscape:window-height="1017"
     id="namedview23"
     showgrid="false"
     inkscape:zoom="1.3037281"
     inkscape:cx="269.70075"
     inkscape:cy="291.26179"
     inkscape:window-x="-8"
     inkscape:window-y="-8"
     inkscape:window-maximized="1"
     inkscape:current-layer="svg21">
    <inkscape:grid
       type="xygrid"
       id="grid45" />
  </sodipodi:namedview>
  <path
     style="fill:#000000;stroke:#000000;stroke-width:1px;stroke-linecap:butt;stroke-linejoin:miter;stroke-opacity:1"
     d="m 227.80823,68.656033 -4.60218,-16.107653 -7.67032,-14.573591 3.06813,-19.942808 3.06812,2.301093 6.90328,6.136249 29.14718,9.204373 16.10766,16.107653 v 9.971404 l 56.7603,-13.80656 3.06812,-3.068124 21.47687,2.301093 c 0,0 62.12952,23.010933 8.43734,25.312026 -53.69217,2.301093 -92.81076,6.136249 -92.81076,6.136249 l -10.73843,19.175777 -7.67031,26.846086 45.25483,-9.9714 9.20437,-12.2725 c 0,0 29.91422,9.20437 26.07906,41.41968 -3.83515,32.2153 -7.67031,66.7317 -7.67031,66.7317 l -11.50547,21.47687 -9.20437,0.76703 3.06813,-76.7031 -32.21531,2.30109 -29.14718,-18.40875 z"
     id="path37"
     inkscape:connector-curvature="0" />
  <path
     style="fill:#000000;stroke:#000000;stroke-width:1px;stroke-linecap:butt;stroke-linejoin:miter;stroke-opacity:1"
     d="m 227.80823,68.656033 -85.14045,20.709839 -3.06812,5.369218 c 0,0 19.94281,26.84609 32.98233,23.01093 13.03953,-3.83515 46.02187,-19.942806 46.02187,-19.942806 l 3.83515,2.301096 -12.27249,44.4878 -11.50547,4.60219 c 0,0 -41.41968,-9.97141 -33.74937,6.13625 7.67031,16.10765 21.47687,26.07905 21.47687,26.07905 l 7.67031,105.08326 5.36922,9.20437 -15.34062,-2.30109 1.53406,14.57359 7.67031,10.73844 16.10766,-8.43735 46.78889,-16.87468 44.48781,-1.53406 6.90328,20.70984 -51.39109,6.90328 -10.73843,-9.20438 -12.2725,-3.06812 -3.06812,6.90328 -4.60219,13.80656 -102.01514,12.2725 -90.509663,28.38015 -26.8460883,-3.06813 -4.6021865,2.3011 c 0,0 45.2548338,41.41967 56.7602998,34.51639 11.505467,-6.90327 46.788898,-52.15811 164.911688,-60.59545 118.12278,-8.43734 89.74263,-6.13625 89.74263,-6.13625 l 22.2439,-7.67031 -3.06812,-34.5164 -4.60219,-55.99327 -1.53406,-7.67031 -12.2725,2.30109 -7.67031,36.05046 c 0,0 -75.16904,9.97141 -85.14045,17.64172 -9.9714,7.67031 -0.76703,-19.17578 -0.76703,-19.17578 l 13.03953,0.76703 26.07906,-22.2439 c 0,0 16.10765,-26.07905 -13.03953,-13.03953 -29.14718,13.03953 -29.14718,12.2725 -29.14718,12.2725 l -1.53407,-29.14718 9.20438,-2.30109 c 0,0 39.11858,2.30109 46.78889,-13.80656 7.67032,-16.10766 6.13625,-22.2439 -10.73843,-16.87469 -16.87468,5.36922 -39.11859,17.64172 -39.11859,17.64172 l -6.13625,-0.76703 c 0,0 7.67032,-22.2439 0,-30.68125 -7.67031,-8.43734 30.68125,-28.38015 30.68125,-28.38015 z"
     id="path39"
     inkscape:connector-curvature="0" />
  <path
     style="fill:#000000;stroke:#000000;stroke-width:1px;stroke-linecap:butt;stroke-linejoin:miter;stroke-opacity:1"
     d="m 331.35743,307.96973 11.50547,6.90328 89.74263,-0.76703 c 0,0 68.26577,4.60219 75.16905,25.31203 6.90328,20.70984 -28.38015,10.73843 -28.38015,10.73843 0,0 -36.81749,-20.70984 -65.96468,-20.70984 -29.14718,0 -78.23717,-1.53406 -78.23717,-1.53406 l -4.60218,29.14718 c 0,0 73.63498,42.18671 72.86795,65.19764 -0.76703,23.01094 -15.34062,25.31203 -15.34062,25.31203 l -31.44828,-17.64172 c 0,0 -55.22623,-75.93607 -81.30529,-88.9756 -26.07906,-13.03953 38.35155,12.2725 38.35155,12.2725 l -0.76703,-17.64172 z"
     id="path41"
     inkscape:connector-curvature="0" />
  <path
     style="fill:#000000;stroke:#000000;stroke-width:1px;stroke-linecap:butt;stroke-linejoin:miter;stroke-opacity:1"
     d="m 233.17745,307.2027 -13.80656,49.08999 -24.54499,42.18671 -41.41968,32.98234 -1.53407,8.43734 6.90328,3.06812 17.64172,-6.13625 13.80656,-15.34062 65.96467,-84.37342 V 319.4752 Z"
     id="path43"
     inkscape:connector-curvature="0" />
</svg>
