<?xml version="1.0" encoding="UTF-8" standalone="no"?>
<!-- Created with Inkscape (http://www.inkscape.org/) -->

<svg
   xmlns:dc="http://purl.org/dc/elements/1.1/"
   xmlns:cc="http://creativecommons.org/ns#"
   xmlns:rdf="http://www.w3.org/1999/02/22-rdf-syntax-ns#"
   xmlns:svg="http://www.w3.org/2000/svg"
   xmlns="http://www.w3.org/2000/svg"
   xmlns:sodipodi="http://sodipodi.sourceforge.net/DTD/sodipodi-0.dtd"
   xmlns:inkscape="http://www.inkscape.org/namespaces/inkscape"
   version="1.1"
   id="svg10"
   width="512"
   height="512"
   viewBox="0 0 512 512"
   sodipodi:docname="U+79FB.svg"
   inkscape:version="0.92.4 (5da689c313, 2019-01-14)">
  <metadata
     id="metadata16">
    <rdf:RDF>
      <cc:Work
         rdf:about="">
        <dc:format>image/svg+xml</dc:format>
        <dc:type
           rdf:resource="http://purl.org/dc/dcmitype/StillImage" />
        <dc:title></dc:title>
      </cc:Work>
    </rdf:RDF>
  </metadata>
  <defs
     id="defs14" />
  <sodipodi:namedview
     pagecolor="#ffffff"
     bordercolor="#666666"
     borderopacity="1"
     objecttolerance="10"
     gridtolerance="10"
     guidetolerance="10"
     inkscape:pageopacity="0"
     inkscape:pageshadow="2"
     inkscape:window-width="1920"
     inkscape:window-height="1017"
     id="namedview12"
     showgrid="false"
     inkscape:zoom="1.6523438"
     inkscape:cx="256"
     inkscape:cy="256"
     inkscape:window-x="-8"
     inkscape:window-y="-8"
     inkscape:window-maximized="1"
     inkscape:current-layer="svg10" />
  <path
     style="fill:#000000;stroke:#000000;stroke-width:1px;stroke-linecap:butt;stroke-linejoin:miter;stroke-opacity:1"
     d="m 187.00709,39.338061 c 0,0 29.65485,7.867613 -9.07801,40.548464 -38.73286,32.680855 -39.94326,33.891255 -39.94326,33.891255 l 12.70922,-1.2104 12.70922,-4.23641 c 0,0 24.20803,13.91962 19.97163,20.57683 -4.23641,6.65721 -133.749412,44.78487 -133.749412,44.78487 0,0 -14.524823,-2.4208 -19.971632,-8.47281 -5.446808,-6.05201 7.262412,44.78487 19.971632,44.78487 12.709219,0 105.910162,-58.70449 122.855792,-57.49409 16.94563,1.2104 16.94563,8.47281 16.94563,8.47281 0,0 -21.18204,38.73286 -46.60048,61.7305 -25.41844,22.99763 -90.174938,68.99291 -99.252952,66.5721 -9.078014,-2.4208 -2.420804,5.44681 -2.420804,5.44681 0,0 13.314421,16.34043 38.732861,4.84161 25.418435,-11.49882 95.621745,-67.17731 102.884165,-95.01655 7.26241,-27.83924 2.4208,110.75177 -2.42081,117.40898 -4.84161,6.65721 -15.13002,-1.8156 -15.13002,-1.8156 l 2.4208,25.41844 -1.8156,21.18203 19.36643,26.62884 c 0,0 11.49882,36.31206 15.13002,-76.25531 3.63121,-112.56738 4.23641,-111.35698 4.23641,-111.35698 l 3.63121,-3.026 c 0,0 24.20803,30.26004 32.68085,18.15603 8.47281,-12.10402 3.026,-22.99764 3.026,-22.99764 l -30.86525,-6.05201 -5.44681,0.6052 c 0,0 -3.026,-3.6312 -1.2104,-7.26241 1.81561,-3.63121 17.55083,-11.49882 0.6052,-33.89125 -16.94562,-22.39244 62.3357,-24.81324 62.3357,-24.81324 0,0 21.18203,-10.89362 0.6052,-19.36643 -20.57683,-8.472816 -21.18203,-9.683218 -40.54846,0 -19.36643,9.68321 -18.15603,6.65721 -18.15603,6.65721 l -7.26241,-2.42081 c 0,0 -9.07802,-9.07801 -16.94563,-10.89361 -7.86761,-1.815606 -3.026,-11.498821 -3.026,-11.498821 l 59.30969,-19.971631 c 0,0 22.39244,-12.104019 -3.63121,-28.444445 -26.02364,-16.340425 -28.44444,-26.02364 -52.65248,-1.210402 z"
     id="path20"
     inkscape:connector-curvature="0" />
  <path
     style="fill:#000000;stroke:#000000;stroke-width:1px;stroke-linecap:butt;stroke-linejoin:miter;stroke-opacity:1"
     d="m 329.22931,29.049645 c 0,0 16.34043,29.049646 -4.2364,53.257684 -20.57683,24.208041 -38.12766,37.522461 -38.12766,37.522461 l -4.23641,5.44681 3.63121,4.8416 c -0.40122,-0.14887 64.01453,-23.31763 70.20331,-64.151297 4.5831,-30.239402 -29.31753,-35.458824 -27.23405,-36.917258 z"
     id="path22"
     inkscape:connector-curvature="0"
     sodipodi:nodetypes="cscccsc" />
  <path
     style="fill:#000000;stroke:#000000;stroke-width:1px;stroke-linecap:butt;stroke-linejoin:miter;stroke-opacity:1"
     d="m 358.88416,70.20331 22.99764,9.078014 25.41844,-2.420804 6.65721,-1.815603 c 0,0 -47.81088,61.730493 -56.88889,63.546103 -9.07802,1.8156 -20.57683,-16.34043 -27.23404,-14.52483 -6.65722,1.81561 -3.63121,-1.2104 -3.63121,-1.2104 0,0 14.52482,29.04965 11.49882,33.28605 -3.02601,4.23641 -35.70686,30.86525 -49.62648,35.70686 -13.91962,4.84161 -2.4208,7.26241 -2.4208,7.26241 l 15.13002,-6.05201 c 0,0 65.3617,-32.68085 72.01891,-41.75886 6.65721,-9.07802 -38.73286,78.07092 -45.39007,76.25532 -6.65721,-1.81561 -7.26241,-10.28842 -7.26241,-10.28842 0,0 -7.86761,-13.31442 -15.73522,4.84161 -7.86762,18.15603 -3.63121,40.54846 -22.39244,49.02127 -18.76123,8.47282 -30.26005,16.94563 -17.55083,16.94563 12.70922,0 34.49646,-16.34043 36.31206,-11.49882 1.8156,4.84161 33.89125,30.26005 44.78487,29.65485 10.89362,-0.6052 10.89362,4.23641 10.89362,4.23641 l 3.6312,-8.47282 1.2104,-7.26241 c 0,0 -9.68321,-30.86525 -22.99763,-39.33806 -13.31442,-8.47281 11.49882,-10.89362 29.04964,-52.65248 17.55083,-41.75887 3.63121,26.62884 27.83925,24.20803 24.20804,-2.4208 26.02364,-3.6312 26.02364,-3.6312 l -58.70449,98.64775 -66.57211,69.59811 -48.41607,45.99527 -90.78015,63.5461 c 0,0 -22.39243,14.52483 16.34043,-1.8156 38.73286,-16.34043 119.22459,-68.99291 137.98582,-92.59574 18.76123,-23.60284 58.09929,-67.17731 58.09929,-67.17731 l 67.7825,-115.59338 c 0,0 -3.026,-18.76123 30.26005,-26.02364 33.28605,-7.26241 49.62648,-9.68322 33.28605,-21.18203 -16.34042,-11.49882 -15.13002,-16.34043 -24.20804,-15.13003 -9.07801,1.2104 -55.07328,36.91726 -70.20331,33.89126 -15.13002,-3.02601 -22.39243,-7.86762 -22.39243,-7.86762 l 18.15603,-33.89125 c 0,0 -1.8156,-15.13002 -7.86761,-16.34043 -6.05201,-1.2104 16.94562,-25.41844 16.94562,-25.41844 l -1.2104,-15.130019 c 0,0 7.86761,-15.130023 21.78723,-21.182033 13.91963,-6.052009 22.99764,-4.841607 6.65721,-35.101655 -16.34042,-30.260047 27.83925,18.76123 -79.28132,29.654847 z"
     id="path24"
     inkscape:connector-curvature="0" />
</svg>
