<?xml version="1.0" encoding="UTF-8" standalone="no"?>
<!-- Created with Inkscape (http://www.inkscape.org/) -->

<svg
   xmlns:dc="http://purl.org/dc/elements/1.1/"
   xmlns:cc="http://creativecommons.org/ns#"
   xmlns:rdf="http://www.w3.org/1999/02/22-rdf-syntax-ns#"
   xmlns:svg="http://www.w3.org/2000/svg"
   xmlns="http://www.w3.org/2000/svg"
   xmlns:sodipodi="http://sodipodi.sourceforge.net/DTD/sodipodi-0.dtd"
   xmlns:inkscape="http://www.inkscape.org/namespaces/inkscape"
   version="1.1"
   id="svg2"
   width="512"
   height="512"
   viewBox="0 0 512 512"
   sodipodi:docname="U+7E3B.svg"
   inkscape:version="0.92.4 (5da689c313, 2019-01-14)">
  <metadata
     id="metadata8">
    <rdf:RDF>
      <cc:Work
         rdf:about="">
        <dc:format>image/svg+xml</dc:format>
        <dc:type
           rdf:resource="http://purl.org/dc/dcmitype/StillImage" />
        <dc:title></dc:title>
      </cc:Work>
    </rdf:RDF>
  </metadata>
  <defs
     id="defs6" />
  <sodipodi:namedview
     pagecolor="#ffffff"
     bordercolor="#666666"
     borderopacity="1"
     objecttolerance="10"
     gridtolerance="10"
     guidetolerance="10"
     inkscape:pageopacity="0"
     inkscape:pageshadow="2"
     inkscape:window-width="1920"
     inkscape:window-height="1017"
     id="namedview4"
     showgrid="false"
     inkscape:zoom="1.3037281"
     inkscape:cx="308.73692"
     inkscape:cy="192.10793"
     inkscape:window-x="-8"
     inkscape:window-y="-8"
     inkscape:window-maximized="1"
     inkscape:current-layer="svg2" />
  <path
     style="fill:#000000;stroke:#000000;stroke-width:1px;stroke-linecap:butt;stroke-linejoin:miter;stroke-opacity:1"
     d="m 252.35323,18.031981 c 0,0 33.74936,42.18671 28.38015,49.857021 -5.36922,7.67031 -115.05467,35.283428 -128.86123,8.437342 -3.06812,18.408746 -3.06812,19.175777 -3.06812,19.175777 l 19.17578,32.215309 c 0,0 147.26997,-82.07233 224.74011,-65.964677 -18.40875,9.204373 -18.40875,9.204373 -18.40875,9.204373 0,0 57.52733,-0.767031 62.89655,1.534062 5.36922,2.301093 -6.90328,-37.584523 -30.68124,-32.982337 -22.24391,9.971405 -107.38436,25.312026 -107.38436,25.312026 0,0 10.73844,-19.942808 -9.9714,-32.982336 -20.70984,-13.039529 -36.81749,-13.80656 -36.81749,-13.80656 z"
     id="path3715"
     inkscape:connector-curvature="0" />
  <path
     style="fill:#000000;stroke:#000000;stroke-width:1px;stroke-linecap:butt;stroke-linejoin:miter;stroke-opacity:1"
     d="m 199.42808,118.51305 c 0,0 15.34062,24.545 -4.60218,51.39109 -12.2725,49.85702 -12.2725,49.85702 -12.2725,49.85702 0,0 -26.07906,183.32043 -167.979809,216.30276 -9.2043734,4.60219 -9.2043734,4.60219 -9.2043734,4.60219 0,0 41.4196784,4.60219 70.5668594,-10.73844 29.147183,-15.34062 68.265763,-69.03279 82.072323,-105.08325 13.80656,-36.05047 46.7889,-146.50294 46.7889,-146.50294 l 5.36922,-7.67031 c 0,0 7.67031,16.87468 19.94281,17.64171 12.27249,0.76703 16.10765,2.3011 16.10765,2.3011 l 6.90328,-13.03953 6.13625,-0.76703 2.30109,1.53406 -49.08999,73.63498 c 0,0 42.18671,-38.35155 52.92515,-29.14718 10.73843,9.20437 -9.97141,39.11859 -9.97141,39.11859 l 13.80656,5.36921 c 0,0 9.20437,-59.06139 5.36922,-65.19764 -3.83516,-6.13625 11.50546,-8.43734 20.70984,16.87469 9.20437,1.53406 9.20437,1.53406 9.20437,1.53406 l 3.83516,-6.90328 2.30109,-7.67031 c 0,0 -31.44827,-13.80656 -37.58452,-14.57359 7.67031,-29.91422 0,-23.77797 7.67031,-29.91422 7.67031,-6.13624 34.5164,-7.67031 34.5164,-7.67031 l 13.80656,12.2725 24.54499,0.76703 3.06812,13.80656 c 0,0 -32.2153,45.25484 -39.11858,47.55593 -6.90328,2.30109 -3.06813,6.90328 -3.06813,6.90328 0,0 31.44828,-15.34062 38.35156,-26.84609 0.76703,45.25483 0.76703,46.02187 0.76703,46.02187 l -9.9714,-2.3011 -3.06813,8.43734 4.60219,6.90328 -29.14718,46.02187 -26.84609,-14.57359 c 0,0 12.2725,-35.28343 26.07906,-33.74937 5.36921,-17.64171 8.43734,-17.64171 5.36921,-17.64171 -3.06812,0 -19.17577,-4.60219 -19.17577,-4.60219 l -8.43735,3.83515 c 0,0 18.40875,16.10766 -25.31202,41.41968 -4.60219,3.06813 -4.60219,3.06813 -4.60219,3.06813 0,0 -11.50546,22.2439 1.53406,30.68124 13.03953,8.43734 30.68125,-6.90328 30.68125,-6.90328 l 10.73843,4.60219 -39.88561,33.74937 -14.57359,-9.97141 -10.73844,4.60219 0.76703,0.76703 c 0,0 6.90328,32.98234 17.64172,31.44827 10.73843,-1.53406 83.60639,-32.2153 95.87888,-27.61312 12.2725,4.60219 29.91421,13.80656 29.91421,13.80656 h 6.13625 c 0,0 -9.20437,-34.5164 -18.40874,-36.81749 -9.20438,-2.30109 -28.38015,-7.67031 -28.38015,-7.67031 l -4.60219,0.76703 c 0,0 -4.60219,0 1.53406,6.13625 6.13625,6.13625 17.64172,13.03953 0.76703,16.87468 -16.87468,3.83516 -43.72077,9.20438 -43.72077,9.20438 0,0 7.67031,-30.68125 36.81749,-39.11859 11.50547,-24.54499 11.50547,-24.54499 11.50547,-24.54499 0,0 14.57359,-15.34062 24.545,-11.50547 9.9714,3.83516 -2.3011,-20.70984 -2.3011,-20.70984 0,0 -7.67031,-42.18671 -1.53406,-59.06139 6.13625,-16.87469 -8.43734,-36.05046 -5.36922,-38.35156 3.06813,-2.30109 29.91421,-23.01093 64.43061,-28.38015 2.3011,-16.10765 2.3011,-16.10765 2.3011,-16.10765 l -9.20438,-5.36922 -53.69217,20.70984 6.90328,-29.91421 c 0,0 -23.77797,-38.351554 -38.35156,-17.641715 14.57359,9.971405 14.57359,9.971405 14.57359,9.971405 0,0 12.2725,32.98234 3.06813,42.95374 -30.68125,8.43734 -31.44828,9.20437 -31.44828,9.20437 0,0 -12.27249,-24.54499 -32.2153,-13.80656 1.53406,-16.87468 1.53406,-16.87468 1.53406,-16.87468 0,0 -10.73843,-22.243901 -33.74937,-11.50547 5.36922,7.67031 6.13625,7.67031 6.13625,7.67031 l 2.30109,24.545 -49.08999,20.70984 c 0,0 6.13625,-39.88562 -16.10765,-39.11859 z"
     id="path3717"
     inkscape:connector-curvature="0" />
  <path
     style="fill:#000000;stroke:#000000;stroke-width:1px;stroke-linecap:butt;stroke-linejoin:miter;stroke-opacity:1"
     d="m 388.88476,199.05132 c 0,0 69.79983,16.87468 65.96467,33.74936 33.74937,16.87469 33.74937,16.87469 33.74937,16.87469 0,0 9.20437,-21.47687 -26.84609,-34.5164 -36.05046,-13.03953 -72.86795,-16.10765 -72.86795,-16.10765 z"
     id="path3719"
     inkscape:connector-curvature="0" />
  <path
     style="fill:#000000;stroke:#000000;stroke-width:1px;stroke-linecap:butt;stroke-linejoin:miter;stroke-opacity:1"
     d="m 246.98401,394.64424 c 0,0 -34.5164,26.07906 -5.36922,50.62406 29.14718,24.54499 12.2725,-36.05047 12.2725,-36.05047 z"
     id="path3721"
     inkscape:connector-curvature="0" />
  <path
     style="fill:#000000;stroke:#000000;stroke-width:1px;stroke-linecap:butt;stroke-linejoin:miter;stroke-opacity:1"
     d="m 306.0454,378.53659 c 0,0 19.94281,29.14718 10.73844,45.25484 -9.20437,16.10765 -17.64172,10.73843 -17.64172,10.73843 l 23.77797,33.74937 9.20437,3.06812 c 0,0 2.30109,-82.07232 5.36922,-83.60639 3.06812,-1.53406 -11.50547,-23.77796 -22.2439,-19.17577 -10.73844,4.60218 -9.20438,9.9714 -9.20438,9.9714 z"
     id="path3723"
     inkscape:connector-curvature="0" />
  <path
     style="fill:#000000;stroke:#000000;stroke-width:1px;stroke-linecap:butt;stroke-linejoin:miter;stroke-opacity:1"
     d="m 372.01008,378.53659 32.98233,65.19764 c -1.53406,13.03953 17.64172,-0.76703 17.64172,-0.76703 0,0 17.07028,-10.96092 -7.62428,-34.57077 -4.61002,-4.40753 -14.38918,-15.43267 -19.36574,-18.57436 -6.06332,-3.82775 -14.50182,-6.57208 -23.63403,-11.28548 z"
     id="path3725"
     inkscape:connector-curvature="0"
     sodipodi:nodetypes="cccssc" />
</svg>
