<?xml version="1.0" encoding="UTF-8" standalone="no"?>
<!-- Created with Inkscape (http://www.inkscape.org/) -->

<svg
   xmlns:dc="http://purl.org/dc/elements/1.1/"
   xmlns:cc="http://creativecommons.org/ns#"
   xmlns:rdf="http://www.w3.org/1999/02/22-rdf-syntax-ns#"
   xmlns:svg="http://www.w3.org/2000/svg"
   xmlns="http://www.w3.org/2000/svg"
   xmlns:sodipodi="http://sodipodi.sourceforge.net/DTD/sodipodi-0.dtd"
   xmlns:inkscape="http://www.inkscape.org/namespaces/inkscape"
   version="1.1"
   id="svg3733"
   width="512"
   height="512"
   viewBox="0 0 512 512"
   sodipodi:docname="U+9010.svg"
   inkscape:version="0.92.4 (5da689c313, 2019-01-14)">
  <metadata
     id="metadata3739">
    <rdf:RDF>
      <cc:Work
         rdf:about="">
        <dc:format>image/svg+xml</dc:format>
        <dc:type
           rdf:resource="http://purl.org/dc/dcmitype/StillImage" />
        <dc:title></dc:title>
      </cc:Work>
    </rdf:RDF>
  </metadata>
  <defs
     id="defs3737" />
  <sodipodi:namedview
     pagecolor="#ffffff"
     bordercolor="#666666"
     borderopacity="1"
     objecttolerance="10"
     gridtolerance="10"
     guidetolerance="10"
     inkscape:pageopacity="0"
     inkscape:pageshadow="2"
     inkscape:window-width="1920"
     inkscape:window-height="1017"
     id="namedview3735"
     showgrid="false"
     inkscape:zoom="1.3037281"
     inkscape:cx="389.47918"
     inkscape:cy="237.97283"
     inkscape:window-x="-8"
     inkscape:window-y="-8"
     inkscape:window-maximized="1"
     inkscape:current-layer="svg3733" />
  <path
     style="fill:#000000;stroke:#000000;stroke-width:1px;stroke-linecap:butt;stroke-linejoin:miter;stroke-opacity:1"
     d="m 55.226238,133.85367 c 0,0 -11.505466,23.01094 6.90328,30.68125 18.408746,7.67031 42.953742,-12.2725 42.953742,-12.2725 0,0 16.87468,-13.80656 -1.53406,-19.94281 -18.40875,-6.13625 -48.322962,1.53406 -48.322962,1.53406 z"
     id="path3743"
     inkscape:connector-curvature="0" />
  <path
     style="fill:#000000;stroke:#000000;stroke-width:1px;stroke-linecap:butt;stroke-linejoin:miter;stroke-opacity:1"
     d="m 95.111855,222.06225 c 0,0 -62.129518,35.28343 -69.799829,35.28343 -7.670311,0 -12.272498,27.61312 -12.272498,27.61312 l 12.272498,5.36922 c 0,0 33.749368,-28.38015 51.391083,-29.91422 17.641714,-1.53406 19.942808,-0.76703 19.942808,-0.76703 l 29.914213,-20.70984 c 0,0 29.14718,-12.27249 -31.448275,-16.87468 z"
     id="path3745"
     inkscape:connector-curvature="0" />
  <path
     style="fill:#000000;stroke:#000000;stroke-width:1px;stroke-linecap:butt;stroke-linejoin:miter;stroke-opacity:1"
     d="m 91.276699,301.06645 c 0,0 45.254831,0 31.448271,11.50547 -13.80656,11.50546 -14.57359,19.17577 -14.57359,19.17577 l 21.47687,17.64172 20.70984,18.40875 19.94281,8.43734 c 0,0 50.62405,24.54499 160.3095,26.84609 109.68544,2.30109 171.81496,-5.36922 171.81496,-5.36922 l 5.36922,1.53406 c 0,0 -65.96467,19.94281 -85.14045,31.44827 -19.17578,11.50547 -5.36922,22.24391 -21.47687,19.94281 -16.10766,-2.30109 -159.54247,-14.57359 -197.89402,-39.11858 -38.35156,-24.545 -60.59546,-42.18671 -73.63499,-38.35156 -13.03953,3.83516 -28.38015,13.80656 -31.448271,21.47687 -3.068124,7.67031 -17.641715,8.43735 -17.641715,8.43735 0,0 -29.914212,-23.77797 -3.068124,-30.68125 26.84609,-6.90328 42.95374,-9.20437 42.95374,-9.20437 0,0 -55.226238,-61.36249 -29.147181,-62.12952 z"
     id="path3747"
     inkscape:connector-curvature="0" />
  <path
     style="fill:#000000;stroke:#000000;stroke-width:1px;stroke-linecap:butt;stroke-linejoin:miter;stroke-opacity:1"
     d="m 200.19511,115.44493 c 0,0 -1.53406,30.68124 15.34062,23.77796 16.87469,-6.90328 109.68545,-65.964671 124.25904,-71.333888 14.57359,-5.369218 23.01093,-13.80656 -8.43734,-21.476871 -31.44828,-7.670311 -98.17998,83.606389 -131.16232,69.032799 z"
     id="path3749"
     inkscape:connector-curvature="0" />
  <path
     style="fill:#000000;stroke:#000000;stroke-width:1px;stroke-linecap:butt;stroke-linejoin:miter;stroke-opacity:1"
     d="m 302.21025,101.63837 c 0,0 20.70984,18.40875 -9.97141,45.25483 -30.68124,26.84609 -91.2767,72.86796 -91.2767,72.86796 l -8.43734,-0.76703 9.97141,-16.10766 c 0,0 93.57779,-62.12952 99.71404,-101.2481 z"
     id="path3751"
     inkscape:connector-curvature="0" />
  <path
     style="fill:#000000;stroke:#000000;stroke-width:1px;stroke-linecap:butt;stroke-linejoin:miter;stroke-opacity:1"
     d="m 276.13119,178.34148 19.94281,2.30109 -29.14718,64.43061 -39.11859,33.74937 -20.70984,3.83516 -12.27249,0.76703 c 0,0 76.7031,-36.8175 81.30529,-105.08326 z"
     id="path3753"
     inkscape:connector-curvature="0" />
  <path
     style="fill:#000000;stroke:#000000;stroke-width:1px;stroke-linecap:butt;stroke-linejoin:miter;stroke-opacity:1"
     d="m 302.21025,199.81835 17.64171,-1.53406 13.80656,22.2439 1.53406,26.07905 -0.76703,4.60219 c 0,0 86.67452,-9.9714 101.24811,54.45921 14.57359,64.43061 -32.98234,-9.97141 -32.98234,-9.97141 0,0 -46.02187,-36.05046 -67.49874,-39.88561 -21.47687,-3.83516 -1.53406,57.52733 -1.53406,57.52733 0,0 0,40.65265 -18.40874,55.22624 -18.40875,14.57359 -17.64172,12.27249 -17.64172,12.27249 l -34.5164,-37.58452 c 0,0 -7.67031,-3.06812 16.87469,-13.03953 24.54499,-9.9714 47.55592,-65.19764 40.65264,-95.87888 -6.90328,-30.68125 -17.64171,20.70984 -17.64171,20.70984 0,0 -42.18671,75.93607 -63.66358,83.60638 -21.47687,7.67032 -30.68124,17.64172 -52.15812,9.97141 -21.47687,-7.67031 7.67032,-6.90328 7.67032,-6.90328 0,0 62.89654,16.10765 107.38435,-141.90075 z"
     id="path3755"
     inkscape:connector-curvature="0" />
  <path
     style="fill:#000000;stroke:#000000;stroke-width:1px;stroke-linecap:butt;stroke-linejoin:miter;stroke-opacity:1"
     d="m 380.44742,139.98992 c 0,0 31.44827,-0.76703 -43.72077,65.19765 -75.16905,65.96467 79.77123,-42.95374 79.77123,-42.95374 0,0 13.03953,-24.545 -19.94281,-32.21531 -32.98234,-7.67031 -16.10765,9.9714 -16.10765,9.9714 z"
     id="path3757"
     inkscape:connector-curvature="0" />
</svg>
