<?xml version="1.0" encoding="UTF-8" standalone="no"?>
<!-- Created with Inkscape (http://www.inkscape.org/) -->

<svg
   xmlns:dc="http://purl.org/dc/elements/1.1/"
   xmlns:cc="http://creativecommons.org/ns#"
   xmlns:rdf="http://www.w3.org/1999/02/22-rdf-syntax-ns#"
   xmlns:svg="http://www.w3.org/2000/svg"
   xmlns="http://www.w3.org/2000/svg"
   xmlns:sodipodi="http://sodipodi.sourceforge.net/DTD/sodipodi-0.dtd"
   xmlns:inkscape="http://www.inkscape.org/namespaces/inkscape"
   version="1.1"
   id="svg2"
   width="512"
   height="512"
   viewBox="0 0 512 512"
   sodipodi:docname="U+96C5.svg"
   inkscape:version="0.92.4 (5da689c313, 2019-01-14)">
  <metadata
     id="metadata8">
    <rdf:RDF>
      <cc:Work
         rdf:about="">
        <dc:format>image/svg+xml</dc:format>
        <dc:type
           rdf:resource="http://purl.org/dc/dcmitype/StillImage" />
        <dc:title></dc:title>
      </cc:Work>
    </rdf:RDF>
  </metadata>
  <defs
     id="defs6" />
  <sodipodi:namedview
     pagecolor="#ffffff"
     bordercolor="#666666"
     borderopacity="1"
     objecttolerance="10"
     gridtolerance="10"
     guidetolerance="10"
     inkscape:pageopacity="0"
     inkscape:pageshadow="2"
     inkscape:window-width="1920"
     inkscape:window-height="1017"
     id="namedview4"
     showgrid="false"
     inkscape:zoom="1.3037281"
     inkscape:cx="304.01393"
     inkscape:cy="261.75788"
     inkscape:window-x="-8"
     inkscape:window-y="-8"
     inkscape:window-maximized="1"
     inkscape:current-layer="svg2" />
  <path
     style="fill:#000000;stroke:#000000;stroke-width:1px;stroke-linecap:butt;stroke-linejoin:miter;stroke-opacity:1"
     d="m 215.53573,83.996654 c 0,0 -62.89654,34.516396 -82.07232,26.846086 -19.17578,-7.67031 -9.20437,8.43734 -9.20437,8.43734 l 38.35155,23.01094 c 0,0 73.63498,-41.41968 82.83936,-34.5164 9.20437,6.90328 23.01093,-28.380152 -6.90328,-26.84609 -29.91421,1.534062 -23.01094,3.068124 -23.01094,3.068124 z"
     id="path3715"
     inkscape:connector-curvature="0" />
  <path
     style="fill:#000000;stroke:#000000;stroke-width:1px;stroke-linecap:butt;stroke-linejoin:miter;stroke-opacity:1"
     d="m 63.66358,172.97226 12.272497,16.10765 19.175778,8.43735 c -1.070578,-2.4088 28.050515,10.33861 7.670315,42.1867 -11.131303,17.39486 -19.175782,10.73844 -19.175782,10.73844 0,0 -4.602186,32.21531 11.505467,34.5164 16.107655,2.30109 9.971405,6.90328 9.971405,6.90328 l 16.10765,-12.2725 c 0,0 54.45921,-79.77123 62.89655,-69.0328 8.43734,10.73844 -3.83515,52.15812 -3.83515,52.15812 0,0 -80.538269,83.60639 -92.043735,71.33389 -11.505466,-12.2725 -5.369218,20.70984 -5.369218,20.70984 l 26.846093,16.87468 69.79982,-82.83936 c 0,0 -7.67031,75.93608 -2.30109,78.23717 5.36922,2.3011 -27.61312,-12.27249 -33.74937,-6.90327 -6.13625,5.36921 40.65265,65.96467 49.08999,52.15811 8.43734,-13.80656 -16.87468,-117.35576 -3.83515,-135.7645 13.03953,-18.40875 50.62405,-66.73171 50.62405,-66.73171 0,0 3.06812,-18.40874 -4.60219,-9.9714 -7.67031,8.43734 -38.35155,43.72077 -38.35155,43.72077 0,0 -3.83516,-42.18671 2.30109,-44.4878 6.13625,-2.3011 27.61312,-14.57359 27.61312,-14.57359 l -6.90328,-14.57359 -8.43734,3.06812 c -8.43734,2.30109 -11.50547,11.50547 -8.43734,2.30109 3.06812,-9.20437 6.13625,-19.9428 6.13625,-19.9428 l -26.07906,-6.13625 3.83515,34.5164 -59.82842,37.58452 -3.83516,-32.98234 -7.67031,-7.67031 c 0,0 -42.953738,-16.87468 -51.39108,-7.67031 z"
     id="path3723"
     inkscape:connector-curvature="0"
     sodipodi:nodetypes="cccscsccscsccccssscscccccsccccccc" />
  <path
     style="fill:#000000;stroke:#000000;stroke-width:1px;stroke-linecap:butt;stroke-linejoin:miter;stroke-opacity:1"
     d="m 328.2893,24.16823 2.3011,18.408746 13.80656,28.38015 c 0,0 -32.21531,57.527334 -54.45921,90.509664 -22.2439,32.98234 -42.95374,43.72077 -50.62405,48.32296 -7.67031,4.60219 35.28343,-13.03953 35.28343,-13.03953 l 55.22624,-60.59545 39.88561,-56.760302 c 0,0 -31.44827,-59.061394 -41.41968,-55.226238 z"
     id="path3729"
     inkscape:connector-curvature="0" />
  <path
     style="fill:#000000;stroke:#000000;stroke-width:1px;stroke-linecap:butt;stroke-linejoin:miter;stroke-opacity:1"
     d="m 342.09586,145.35914 5.36922,29.14718 -6.90328,19.17578 c 0,0 32.21531,-19.94281 35.28343,-8.43734 3.06813,11.50546 3.06813,-23.01093 3.06813,-23.01093 0,0 -27.61312,-23.77797 -36.8175,-16.87469 z"
     id="path3731"
     inkscape:connector-curvature="0" />
  <path
     style="fill:#000000;stroke:#000000;stroke-width:1px;stroke-linecap:butt;stroke-linejoin:miter;stroke-opacity:1"
     d="m 295.30697,195.21616 c 0,0 -11.50547,26.84609 -14.57359,48.32296 -3.06813,21.47687 -3.06813,79.77123 -3.06813,79.77123 0,0 9.20438,15.34062 9.97141,-2.30109 0.76703,-17.64172 2.30109,-29.14718 2.30109,-29.14718 0,0 107.38435,-41.41968 111.21951,-32.98234 3.83515,8.43734 -6.13625,-13.03953 -6.13625,-13.03953 h -9.20437 l -26.07906,9.20438 -66.73171,22.2439 c 0,0 -4.60218,-2.3011 -4.60218,-6.13625 0,-3.83516 6.90328,-41.41968 6.90328,-41.41968 0,0 131.92934,-33.74937 132.69638,-26.07906 0.76703,7.67031 3.83515,-9.20437 3.83515,-9.20437 l -19.17578,-7.67031 -106.61732,28.38015 -0.76703,-12.2725 z"
     id="path3733"
     inkscape:connector-curvature="0" />
  <path
     style="fill:#000000;stroke:#000000;stroke-width:1px;stroke-linecap:butt;stroke-linejoin:miter;stroke-opacity:1"
     d="m 340.5618,193.6821 -55.99327,23.77796 v 6.13625 l 46.7889,6.13625 4.60219,9.20437 c 0,0 3.06812,75.16905 -3.06813,79.77124 -6.13625,4.60218 -32.2153,6.90328 -32.2153,6.90328 0,0 -18.40875,16.87468 4.60218,14.57359 23.01093,-2.3011 24.545,-1.53407 24.545,-1.53407 0,0 1.53406,36.8175 -2.3011,38.35156 -3.83515,1.53406 -39.88561,9.9714 -39.88561,9.9714 V 353.9916 c 0,0 -5.36922,-12.2725 -8.43734,2.30109 -3.06813,14.57359 -5.36922,42.95374 -5.36922,42.95374 l -6.90328,10.73844 9.9714,37.58452 c 0,0 16.10765,18.40874 16.87469,-10.73844 0.76703,-29.14718 -0.76704,-32.2153 -0.76704,-32.2153 0,0 103.5492,-36.05046 144.96888,-23.77797 41.41968,12.2725 -29.14718,-25.31202 -29.14718,-25.31202 l -52.92515,15.34062 c 0,0 -8.43734,-3.83516 -8.43734,-32.21531 0,-28.38015 27.61312,-16.87468 51.39108,-18.40874 23.77797,-1.53406 -3.83515,-19.94281 -3.83515,-19.94281 l -38.35156,9.20437 c 0,0 -8.43734,-31.44827 2.3011,-39.11858 10.73843,-7.67031 -3.06813,-21.47687 -3.06813,-21.47687 l 6.13625,-28.38015 z"
     id="path3735"
     inkscape:connector-curvature="0" />
</svg>
