<?xml version="1.0" standalone="no"?>
<!DOCTYPE svg PUBLIC "-//W3C//DTD SVG 1.1//EN" "http://www.w3.org/Graphics/SVG/1.1/DTD/svg11.dtd" >
<svg xmlns="http://www.w3.org/2000/svg" xmlns:xlink="http://www.w3.org/1999/xlink" version="1.1" viewBox="0 0 256 256">
  <g transform="matrix(1 0 0 -1 0 204)">
   <path fill="currentColor"
d="M95 196q27 -2 30 -7l12 -2q9 4 16 -15q2 -5 -8 -5q40 1 55 -5q10 -4 15 -15q3 -6 -5 -4l-12 2q-1 -1 -3 -1q-13 -4 -28 -4q-8 0 -1 2q29 7 36 9q3 1 3 3t-4 5q-19 10 -55 4q3 -7 0 -7q-7 -1 -8 1q-5 5 -6 4q-2 -3 -35 -10q-20 -4 -1 2l30 10q-2 -1 3 1q-5 2 -5 3
q-1 1 2 1q4 1 1 5q-4 5 -10 8q-2 1 -2 3zM87 151q2 0 2 -1t-2 -2q-5 -3 -4 -9q-1 -6 6 -11q-2 -6 -7 -5q-8 9 -7 16q-1 4 3 7q6 5 9 5zM156 118q2 5 9 3q2 -1 4 -1q3 -1 5 -1q2 -1 1 -3t-3 -2q-18 -3 -26 -7q-9 -3 -33 -9q-7 -2 -14 0q-3 0 -3 1t3 2q26 4 49 12q7 2 8 5z
M133 86q-2 2 -2 3q2 2 4 1q9 -4 7 -6q-1 -2 -1 -6q1 -4 1 -5q20 4 27 4q3 0 6 1q4 1 7 4q5 7 11 1q1 -1 15 -6q3 -7 -5 -4q-11 4 -19 3q-9 0 -41 -6q1 -37 0 -55q0 -9 -6 -37q-2 -8 -8 -3.5t-8 1.5v0l-12 6l-42 17q0 -22 21 -32q32 -15 43 9q12 26 6 93q-10 -3 -30 -7
q-21 -5 -29 -7q-10 -3 -17 -2q-4 1 0 2q3 0 11 2q43 10 64 15q0 11 -3 14z" />
  </g>

</svg>
