<?xml version="1.0" standalone="no"?>
<!DOCTYPE svg PUBLIC "-//W3C//DTD SVG 1.1//EN" "http://www.w3.org/Graphics/SVG/1.1/DTD/svg11.dtd" >
<svg xmlns="http://www.w3.org/2000/svg" xmlns:xlink="http://www.w3.org/1999/xlink" version="1.1" viewBox="0 0 256 256">
  <g transform="matrix(1 0 0 -1 0 204)">
   <path fill="currentColor"
d="M84 195q-7 -1 3 -6q5 -3 5 -4q-1 -3 0 -7t-2 -20l-4 -32q5 2 6 0q0 -5 -6 -7q-2 -9 -1 -23q19 -8 21 -12v-16q-2 -3 -9.5 7l-10.5 14q-2 3 -2 4l2 -27v-48q0 -5 5 -25q1 -4 -5 -8q-4 -2 -6 1q-13 18 -18 39q-1 4 2 0l10 -16l1 -1l5 3q-3 19 -3 28q1 23 0 36
q-3 -10 -48 -29q-14 -6 -1 2q51 34 51 57v6q1 4 1 6q-4 -2 -9 -4l-24 -10q-32 -20 -32 -4q0 11 3 11q7 -1 59 23q-1 14 -1 28l-2 9q-6 4 -1 23l7 3q4 0 4 -1zM148 185q3 8 7 7q7 -3 9 -2q6 2 13 -1l10 -3q0 -1.83333 5 -6q-6 5 -6 -8q0 -10 -1 -10q-7 -1 -7 -59q0 -10 -6 -9
t-6 4q0 10 -1 15q-10 -4 -14 -2q-5 2 0 3l7 2q6 6 8 2q1 -2 2 -2t2 3q3 32 4 63q0 5 -5 4q-10 -3 -21 -3q-1 0 0 2zM153 143q0 7 4 8l6 3l6 -1v-8q0 -1 -1 -1q-12 -6 -15 -3q-1 1 0 2zM184 66q1 0 4 -1h2q2 -3 2 -4t-3 -1q-1 0 -6 -3q-25 -16 -49 -32l8 -5q43 18 43 28
q0 1 -5 15q-1 3 4 3zM126 77q-5 -3 -17 0q-4 1 1 2h2q9 7 16 9q91 26 94 26l3 -6q3 2 7 0q13 -5 18 -10q1 -1 1 -2q-1 -1 -2 -1q-3 -1 -10 4q-6 4 -16 3q-23 -2 -77 -18q-2 -5 -5 -8l20 2q43 5 51 -2q18 -14 10 -32l-5 -10l-7 -17q-17 -20 -65 -32l-6 -1q-3 3 0 3q1 0 -2 3
q-11 11 -8 32q1 7 2 0q3 -17 14 -28q4 -4 9 -2q40 16 56 46l1 1q6 11 2 17q-13 20 -56 13l10 -9q-14 -1 -23 -8q-3 -2 1 -1t14 5q13 6 14 6q7 1 0 -2q-45 -18 -52 -26q-5 -5 -3 1q6 12 10 10q2 -1 6 3q22 20 19 21q-10 4 -14 4q-3 0 -4 -2l-13 -11q14 -8 16 0q2 12 5 23
q-4 -1 -11 -4zM149 136q-4 -22 2 -29q3 -4 -1 -5t-5 3l-11 21q3 3 4.5 10.5t7.5 23.5l5 2v-7q0 -4 -2 -19z" />
  </g>

</svg>
