<?xml version="1.0" standalone="no"?>
<!DOCTYPE svg PUBLIC "-//W3C//DTD SVG 1.1//EN" "http://www.w3.org/Graphics/SVG/1.1/DTD/svg11.dtd" >
<svg xmlns="http://www.w3.org/2000/svg" xmlns:xlink="http://www.w3.org/1999/xlink" version="1.1" viewBox="0 0 256 256">
  <g transform="matrix(1 0 0 -1 0 204)">
   <path fill="currentColor"
d="M102 48q12 2 33 7q-3 7 -3 50q0 13 -9 26q-2 3 2 2q6 -1 12 -4q-3 2 1 5q4 4 4 5l5 20q-23 -3 -30 -1q-3 1 -3 2q1 0 5 1q5 0 13 1q7 1 16 3q6 20 0 26q-2 2 -1 2q0 4 3 1q2 -2 7 -5l6 -3q7 -4 0 -7q-4 -2 -6 -12q16 2 20 8q1 2 10 1q11 -1 15 -8q2 -3 0 -5q-1 -1 -4 1
q-14 5 -25 3q-16 -3 -18 -6q-1 -1 -11 -25q7 2 19 5q17 4 17 -3q0 -1 1 -3q6 -7 10 -10q3 -4 2 -6q-4 -5 -3 -9v-25v-22l30 -16q2.5514 8.50468 -20 16q16 -5 35.845 -7.48339q14.155 -1.51661 15.155 -1.51661q2 0 2 -4q0 -1 -3 -2l-30 -1q-5 14 -30 13l-7 -1v0l-12 -1v0
l-12 -2q-13 -40 -36 -51q-6 -3 -1 2q20 15 29 48q-18 4 -40 -11q-3 -2 -6 -1q-6 1 -7 -1q-23 -51 -38 -51l-18 -6q4 5 10 21l2 5q5 2 6 5q1 2 6 9q6 9 6 10q0 15 -2 23q-11 -16 -16 -23q-4 -5 -6 0q-2 4 -1 10q0 6 4 2q3 -3 19 18q0 10 2 25q-4 -4 -11 -10q-17 -15 -27 -21
q-7 -4 -7 1q-1 6 1 8q1 2 2 2q2 0 3 -2q1 -4 6 0q12 8 34 29q0 10 -1 11t0 2h3q8 -2 9 -4q4 3 7 6h1q4 4 6 3q5 -3 -1 -6q-13 -7 -16 -12q-5 -10 -5 -22v-5q3 3 8 7l6 6q2 1 4 5q1 4 4 3q4 -2 7 -3q2 -1 2 -3q0 -1 -2 -2q-3 -5 -8 -12q-10 -14 -20 -35q-1 -2 0 -5t1 -4
q1 1 5 4l12 12q-1 -1 -2 0l-1 1q-1 3 0 2t3 0q1 1 3 1q3 0 3 2q0 1 1 2q8 2 2 -1q-2 -1 -2 -2zM171 33q-4 6 2 2l95 -46q-41 4 -56 7t-19 6q-6 5 -12 15q-7 13 -10 16zM183 59h-6q2 -5 5 -3q1 0 1 3zM169 85q1 -1 1 -2t-1 -1q-11 -2 -26 -5q-5 -1 0 2q19 8 26 6zM163 101
q1 -1 1 -2t-1 -1q-11 -4 -19 -5q-3 0 0 2q11 6 19 6zM170 137q-21 -2 -32 -9q3 -1 0 -4q-3 -1 -2 -13q22 7 26 5q1 -3 -1 -3q-10 -2 -17 -3q-4 -2 -8 0q1 -11 1 -23q-2 -20 4 -31q2 0 5 1l6 2q2 3 0 8q-1 3 0 3q0 1 3 0q8 -5 6 -10h3q3 1 5 1q-3 3 -1 4q1 0 6 -3q2 -1 5 0
q2 1 5 1v23q0 12 -2 32q-4 19 -12 19zM94 77q1 2 0 3t-3 0q-2 -2 -6 -7l-9 -9q-2 -13 0 -23q9 15 18 36zM91 135q3 -2 1 -5q-14 -8 -27 -20q-6 -5 -11 -4q-2 -1 -3 0q0 1 2 3q16 9 23 18q0 4 15 8zM89 158q7 4 14 1q2 -2 7 -2q1 -2 0 -4q-9 0 -13 -2q-5 -3 -2 2q3 3 -6 4
q-2 0 0 1zM72.5 183q-5.5 2 7.5 -4q2 -1 3 -2q4 -4 -1 -7q-12 -9 -21 -22q-2 -3 -3 -4q-27 -34 -34 -38q-2 -1 -1 1q1 12 19 38l18 26q14 8 14 9l-1 2q-0.5 1 -0.5 1zM73 31q-9 -12 -12 -17q0 -3 4 0q4 4 9 8l-1 4t0 5z" />
  </g>

</svg>
