
<svg version="1.1" baseProfile="full" xmlns="http://www.w3.org/2000/svg" width="512" height="512" viewBox="0,0,512,512">

  <rect width="512" height="512" stroke="red" fill="white"></rect>

  <text x="2" y="12" font-size="12" text-anchor="start" fill="red">0</text>
  <path d="M256  64 H0 H512" stroke="lightgray" fill="white"></path>
  <text x="2" y="64" font-size="12" text-anchor="start" fill="red">64</text>
  <path d="M256 128 H0 H512" stroke="lightgray" fill="white"></path>
  <text x="2" y="128" font-size="12" text-anchor="start" fill="red">128</text>
  <path d="M256 192 H0 H512" stroke="lightgray" fill="white"></path>
  <text x="2" y="192" font-size="12" text-anchor="start" fill="red">192</text>
  <path d="M256 256 H0 H512" stroke="lightgray" fill="white"></path>
  <text x="2" y="256" font-size="12" text-anchor="start" fill="red">256</text>
  <path d="M256 320 H0 H512" stroke="lightgray" fill="white"></path>
  <text x="2" y="320" font-size="12" text-anchor="start" fill="red">320</text>
  <path d="M256 384 H0 H512" stroke="lightgray" fill="white"></path>
  <text x="2" y="384" font-size="12" text-anchor="start" fill="red">384</text>
  <path d="M256 448 H0 H512" stroke="lightgray" fill="white"></path>
  <text x="2" y="448" font-size="12" text-anchor="start" fill="red">448</text>
  <text x="2" y="512" font-size="12" text-anchor="start" fill="red">512</text>

  <path d="M64  0 V512" stroke="lightgray" fill="white"></path>
  <text x="64" y="12" font-size="12" text-anchor="start" fill="red">64</text>
  <path d="M128  0 V512" stroke="lightgray" fill="white"></path>
  <text x="128" y="12" font-size="12" text-anchor="start" fill="red">128</text>
  <path d="M195  0 V512" stroke="lightgray" fill="white"></path>
  <text x="192" y="12" font-size="12" text-anchor="start" fill="red">192</text>
  <path d="M256  0 V512" stroke="lightgray" fill="white"></path>
  <text x="256" y="12" font-size="12" text-anchor="start" fill="red">256</text>
  <path d="M320  0 V512" stroke="lightgray" fill="white"></path>
  <text x="320" y="12" font-size="12" text-anchor="start" fill="red">320</text>
  <path d="M384  0 V512" stroke="lightgray" fill="white"></path>
  <text x="384" y="12" font-size="12" text-anchor="start" fill="red">384</text>
  <path d="M448  0 V512" stroke="lightgray" fill="white"></path>
  <text x="448" y="12" font-size="12" text-anchor="start" fill="red">448</text>
  <text x="512" y="12" font-size="12" text-anchor="start" fill="red">512</text>

  <circle cx="256" cy="256" r="120" fill="#009FCC" stroke-width="2" stroke="#000000"></circle>
  <circle cx="257" cy="280" r="100" fill="#FFFFFF"></circle>
  <ellipse fill="#FFFFFF" cx="222" cy="192" rx="30" ry="35" stroke-width="3" stroke="#000000"></ellipse>
  <ellipse fill="#FFFFFF" cx="284" cy="192" rx="30" ry="35" stroke-width="3" stroke="#000000"></ellipse>
  <circle cx="252" cy="230" r="16" fill="#CC0000"></circle>
  <ellipse fill="#000000" cx="240" cy="192" rx="8" ry="10" ></ellipse>
  <ellipse fill="#000000" cx="265" cy="192" rx="8" ry="10" ></ellipse>
  <circle cx="256" cy="305" r="50" fill="#CC0000"></circle>
  <rect x="200" y="250" width="120" height="50" fill="white"></rect>
  <path stroke="#000000" stroke-width="2" d="M170 256 L110 230"></path>
  <path stroke="#000000" stroke-width="2" d="M253 247 L253 300"></path>
  <path stroke="#000000" stroke-width="2" d="M340 280 L410 280"></path>
  <path stroke="#000000" stroke-width="2" d="M170 300 L120 330"></path>
  <path stroke="#000000" stroke-width="2" d="M340 300 L400 330"></path>
  <path stroke="#000000" stroke-width="2" d="M170 280 L100 280"></path>
  <path stroke="#000000" stroke-width="2" d="M340 255 L400 235"></path>

</svg>