
<svg version="1.1" baseProfile="full" xmlns="http://www.w3.org/2000/svg" width="512" height="512" viewBox="0,0,512,512">

  <rect width="512" height="512" stroke="red" fill="white"></rect>

  <text x="2" y="12" font-size="12" text-anchor="start" fill="red">0</text>
  <path d="M256  64 H0 H512" stroke="lightgray" fill="white"></path>
  <text x="2" y="64" font-size="12" text-anchor="start" fill="red">64</text>
  <path d="M256 128 H0 H512" stroke="lightgray" fill="white"></path>
  <text x="2" y="128" font-size="12" text-anchor="start" fill="red">128</text>
  <path d="M256 192 H0 H512" stroke="lightgray" fill="white"></path>
  <text x="2" y="192" font-size="12" text-anchor="start" fill="red">192</text>
  <path d="M256 256 H0 H512" stroke="lightgray" fill="white"></path>
  <text x="2" y="256" font-size="12" text-anchor="start" fill="red">256</text>
  <path d="M256 320 H0 H512" stroke="lightgray" fill="white"></path>
  <text x="2" y="320" font-size="12" text-anchor="start" fill="red">320</text>
  <path d="M256 384 H0 H512" stroke="lightgray" fill="white"></path>
  <text x="2" y="384" font-size="12" text-anchor="start" fill="red">384</text>
  <path d="M256 448 H0 H512" stroke="lightgray" fill="white"></path>
  <text x="2" y="448" font-size="12" text-anchor="start" fill="red">448</text>
  <text x="2" y="512" font-size="12" text-anchor="start" fill="red">512</text>

  <path d="M64  0 V512" stroke="lightgray" fill="white"></path>
  <text x="64" y="12" font-size="12" text-anchor="start" fill="red">64</text>
  <path d="M128  0 V512" stroke="lightgray" fill="white"></path>
  <text x="128" y="12" font-size="12" text-anchor="start" fill="red">128</text>
  <path d="M195  0 V512" stroke="lightgray" fill="white"></path>
  <text x="192" y="12" font-size="12" text-anchor="start" fill="red">192</text>
  <path d="M256  0 V512" stroke="lightgray" fill="white"></path>
  <text x="256" y="12" font-size="12" text-anchor="start" fill="red">256</text>
  <path d="M320  0 V512" stroke="lightgray" fill="white"></path>
  <text x="320" y="12" font-size="12" text-anchor="start" fill="red">320</text>
  <path d="M384  0 V512" stroke="lightgray" fill="white"></path>
  <text x="384" y="12" font-size="12" text-anchor="start" fill="red">384</text>
  <path d="M448  0 V512" stroke="lightgray" fill="white"></path>
  <text x="448" y="12" font-size="12" text-anchor="start" fill="red">448</text>
  <text x="512" y="12" font-size="12" text-anchor="start" fill="red">512</text>
  
  <ellipse cx="256" cy="256" rx="90" ry="110" fill="#ffc78e"></ellipse>
  <circle cx="290" cy="235" r="26" fill="#FFFFFF"></circle>
  <circle cx="220" cy="235" r="26" fill="#FFFFFF"></circle>
  <rect x="260" y="190" width="60" height="40" fill="#ffc78e"></rect>
  <rect x="190" y="190" width="60" height="40" fill="#ffc78e"></rect>
  <path d="M240 210 L200 210" stroke="#000000"></path>
  <path d="M310 210 L270 210" stroke="#000000"></path>
  <circle cx="290" cy="240" r="2" fill="#000000"></circle>
  <circle cx="220" cy="240" r="2" fill="#000000"></circle>
  <path d="M250 270 L250 300" stroke="#000000"></path>
  <ellipse cx="256" cy="330" rx="12" ry="9" fill="#bb3d00"></ellipse>
</svg>

